<svg width="24" height="24" viewBox="0 0 24 24" fill="none" xmlns="http://www.w3.org/2000/svg">
<path fill-rule="evenodd" clip-rule="evenodd" d="M16.7857 12C16.4075 12 15.7143 11.928 15.7143 11.816V22H17.8571V11.816C17.8571 11.928 17.1639 12 16.7857 12ZM17.8571 4.18402V2H15.7143V4.18402C14.6429 4.59702 13.5714 5.696 13.5714 7C13.5714 8.657 15.0104 10 16.7857 10C18.5611 10 20 8.657 20 7C20 5.696 18.9286 4.59702 17.8571 4.18402ZM9.28571 12.184V2H7.14286V12.184C7.47929 12.072 7.83607 12 8.21429 12C8.5925 12 9.28571 12.072 9.28571 12.184ZM11.4286 17C11.4286 18.304 10.3571 19.403 9.28571 19.816V22H7.14286V19.816C6.07143 19.403 5 18.304 5 17C5 15.343 6.43893 14 8.21429 14C9.98964 14 11.4286 15.343 11.4286 17Z" fill="#6A9195"/>
</svg>
