<svg width="24" height="24" viewBox="0 0 24 24" fill="none" xmlns="http://www.w3.org/2000/svg">
<path d="M23.9137 18.3766L21.7769 15.6894V4.38848C21.7769 3.84183 21.3335 3.39844 20.7868 3.39844H3.21277C2.66611 3.39844 2.22319 3.84178 2.22319 4.38848V15.6894L0.0859687 18.3766C0.03 18.4467 0 18.5334 0 18.6234V19.8127C0 20.2492 0.353391 20.6025 0.789422 20.6025H23.2102C23.6462 20.6025 24 20.2492 24 19.8127V18.6234C24 18.5334 23.9696 18.4467 23.9137 18.3766ZM3.61964 4.79536H20.38V14.2926H3.61964V4.79536ZM14.2556 19.6633H9.74442V18.469H14.2556V19.6633Z" fill="#6A9195"/>
<path d="M7.85125 11.5H6.19141V13.1598H7.85125V11.5Z" fill="#6A9195"/>
<path d="M10.3395 9.83984H8.67969V13.1596H10.3395V9.83984Z" fill="#6A9195"/>
<path d="M12.8317 9.00781H11.1719V13.1575H12.8317V9.00781Z" fill="#6A9195"/>
<path d="M15.32 6.51953H13.6602V13.159H15.32V6.51953Z" fill="#6A9195"/>
<path d="M17.8083 8.17969H16.1484V13.1593H17.8083V8.17969Z" fill="#6A9195"/>
</svg>
