<svg width="24" height="24" viewBox="0 0 24 24" fill="none" xmlns="http://www.w3.org/2000/svg">
<path d="M11.5511 7.51838C13.2135 7.51838 14.5603 6.17151 14.5603 4.50919C14.5603 2.84687 13.2135 1.5 11.5511 1.5C9.88882 1.5 8.54196 2.84687 8.54196 4.50919C8.54196 6.17151 9.88882 7.51838 11.5511 7.51838ZM11.5511 3.50521C12.1053 3.50521 12.5551 3.95508 12.5551 4.50919C12.5551 5.0633 12.1053 5.51317 11.5511 5.51317C10.997 5.51317 10.5472 5.0633 10.5472 4.50919C10.5472 3.95508 10.997 3.50521 11.5511 3.50521ZM8.95617 8.41812L8.06191 6.62138C5.37367 7.95728 3.70312 10.651 3.70312 13.652H5.70833C5.71107 11.4163 6.9537 9.41112 8.95617 8.41812ZM7.90007 18.211L6.64373 19.7773C8.029 20.8883 9.77087 21.5 11.5484 21.5C13.3259 21.5 15.0678 20.8883 16.4531 19.7773L15.1967 18.211C13.112 19.8871 9.99032 19.8871 7.90007 18.211ZM17.3912 13.652H19.3964C19.3964 10.651 17.7259 7.95728 15.0376 6.62138L14.1461 8.41812C16.1486 9.41112 17.3912 11.4163 17.3912 13.652ZM3.52481 14.5407C1.86249 14.5407 0.515625 15.8876 0.515625 17.5499C0.515625 19.2122 1.86249 20.5591 3.52481 20.5591C5.18714 20.5591 6.534 19.2122 6.534 17.5499C6.534 15.8876 5.18714 14.5407 3.52481 14.5407ZM3.52481 18.5539C2.97071 18.5539 2.52084 18.104 2.52084 17.5499C2.52084 16.9958 2.97071 16.5459 3.52481 16.5459C4.07892 16.5459 4.52879 16.9958 4.52879 17.5499C4.52879 18.104 4.07892 18.5539 3.52481 18.5539ZM19.5775 14.5407C17.9152 14.5407 16.5683 15.8876 16.5683 17.5499C16.5683 19.2122 17.9152 20.5591 19.5775 20.5591C21.2398 20.5591 22.5867 19.2122 22.5867 17.5499C22.5867 15.8876 21.2398 14.5407 19.5775 14.5407ZM19.5775 18.5539C19.0234 18.5539 18.5735 18.104 18.5735 17.5499C18.5735 16.9958 19.0234 16.5459 19.5775 16.5459C20.1316 16.5459 20.5815 16.9958 20.5815 17.5499C20.5787 18.104 20.1288 18.5539 19.5775 18.5539Z" fill="#6A9195"/>
</svg>
