<svg width="20" height="20" viewBox="0 0 20 20" fill="none" xmlns="http://www.w3.org/2000/svg">
<path d="M11.4067 4.34917V1.04167C11.4067 0.4425 10.9642 0 10.3908 0H9.60917C9.03583 0 8.59333 0.4425 8.59333 1.04167V4.34917C8.59333 4.9225 9.03583 5.39083 9.60917 5.39083H10.3908C10.9642 5.39083 11.4067 4.92167 11.4067 4.34917ZM7.005 4.97417L4.66083 2.65667C4.27 2.26583 3.59333 2.26583 3.2025 2.65667L2.65583 3.20333C2.265 3.59417 2.265 4.27083 2.65583 4.66167L4.97333 7.00583C5.36417 7.39667 6.0675 7.39667 6.4575 7.00583L7.00417 6.45917C7.395 6.06833 7.395 5.365 7.00417 4.975L7.005 4.97417ZM15.0258 7.005L17.3433 4.66083C17.7342 4.27 17.7342 3.59333 17.3433 3.2025L16.7967 2.65583C16.4058 2.265 15.7292 2.265 15.3383 2.65583L12.9942 4.97333C12.6033 5.36417 12.6033 6.0675 12.9942 6.4575L13.5408 7.00417C13.9317 7.395 14.635 7.395 15.025 7.00417L15.0258 7.005ZM1.04167 11.4067H4.34917C4.9225 11.4067 5.39083 10.9642 5.39083 10.3908V9.58333C5.39083 9.01 4.92167 8.59333 4.34917 8.59333H1.04167C0.4425 8.59333 0 9.01 0 9.58333V10.3908C0 10.9642 0.4425 11.4067 1.04167 11.4067ZM15.6508 11.4067H18.9583C19.5575 11.4067 20 10.9642 20 10.3908V9.58333C20 9.01 19.5575 8.59333 18.9583 8.59333H15.6508C15.0775 8.59333 14.6092 9.01 14.6092 9.58333V10.3908C14.6092 10.9642 15.0783 11.4067 15.6508 11.4067ZM4.66167 17.3175L7.00583 15C7.39667 14.6092 7.39667 13.9325 7.00583 13.5417L6.45917 12.9683C6.06833 12.5775 5.365 12.5775 4.975 12.9683L2.6575 15.3383C2.26667 15.7292 2.26667 16.4058 2.6575 16.7967L3.20417 17.3175C3.595 17.7083 4.27083 17.7083 4.66167 17.3175ZM17.3442 15.3383L15.0267 12.9683C14.6358 12.5775 13.9325 12.5775 13.5425 12.9683L12.9958 13.5417C12.605 13.9325 12.605 14.6092 12.9958 15L15.34 17.3175C15.7308 17.7083 16.4075 17.7083 16.7983 17.3175L17.345 16.7967C17.7358 16.4058 17.735 15.7292 17.3442 15.3383ZM11.4067 18.9583V15.6508C11.4067 15.0775 10.9642 14.6092 10.3908 14.6092H9.60917C9.03583 14.6092 8.59333 15.0783 8.59333 15.6508V18.9583C8.59333 19.5575 9.03583 20 9.60917 20H10.3908C10.9642 20 11.4067 19.5575 11.4067 18.9583Z" fill="#6A9195"/>
</svg>
