<svg width="24" height="24" viewBox="0 0 24 24" fill="none" xmlns="http://www.w3.org/2000/svg">
<g clip-path="url(#clip0_307_2472)">
<path d="M12 2C9.87827 2 7.84344 2.84285 6.34315 4.34315C4.84285 5.84344 4 7.87827 4 10V11.9C3.69833 12.1628 3.4539 12.4849 3.28188 12.8461C3.10986 13.2074 3.01391 13.6001 3 14C3.02278 14.5798 3.22019 15.1393 3.56636 15.605C3.91254 16.0708 4.39133 16.421 4.94 16.61C6.24 19.72 8.85 22 12 22H15V20H12C9.74 20 7.69 18.3 6.66 15.61L6.45 15.06L5.86 15C5.61972 14.966 5.39999 14.8459 5.24177 14.6619C5.08354 14.4779 4.99761 14.2427 5 14C5.00105 13.8255 5.04776 13.6543 5.13547 13.5034C5.22319 13.3525 5.34886 13.2273 5.5 13.14L6 12.85V11C6 10.7348 6.10536 10.4804 6.29289 10.2929C6.48043 10.1054 6.73478 10 7 10H17C17.2652 10 17.5196 10.1054 17.7071 10.2929C17.8946 10.4804 18 10.7348 18 11V16H13.91C13.8192 15.7454 13.6613 15.5201 13.4531 15.3479C13.2448 15.1756 12.9938 15.0629 12.7267 15.0215C12.4596 14.9801 12.1863 15.0117 11.9357 15.1129C11.6851 15.214 11.4664 15.381 11.3029 15.5962C11.1394 15.8114 11.037 16.0668 11.0066 16.3353C10.9763 16.6039 11.019 16.8757 11.1304 17.1219C11.2418 17.3682 11.4176 17.5798 11.6393 17.7343C11.8611 17.8889 12.1204 17.9807 12.39 18H20C20.5304 18 21.0391 17.7893 21.4142 17.4142C21.7893 17.0391 22 16.5304 22 16V14C22 13.4696 21.7893 12.9609 21.4142 12.5858C21.0391 12.2107 20.5304 12 20 12V10C20 7.87827 19.1571 5.84344 17.6569 4.34315C16.1566 2.84285 14.1217 2 12 2Z" fill="#6A9195"/>
</g>
<defs>
<clipPath id="clip0_307_2472">
<rect width="24" height="24" fill="white"/>
</clipPath>
</defs>
</svg>
