<svg width="24" height="24" viewBox="0 0 24 24" fill="none" xmlns="http://www.w3.org/2000/svg">
<path d="M12.0063 7.99706C13.6624 7.99706 15.0049 6.65457 15.0049 4.99853C15.0049 3.34249 13.6624 2 12.0063 2C10.3503 2 9.00781 3.34249 9.00781 4.99853C9.00781 6.65457 10.3503 7.99706 12.0063 7.99706Z" fill="#6A9195"/>
<path d="M21.3326 9.99609H12.0039H2.67513C2.00879 9.99609 1.74226 10.829 2.30865 11.1955L7.17292 14.3273C7.40614 14.4939 7.53941 14.7937 7.43946 15.0603L5.60702 21.1573C5.40712 21.8236 6.27336 22.2901 6.77312 21.7903L11.5041 16.7928C11.7707 16.4929 12.2371 16.4929 12.5036 16.7928L17.2346 21.7903C17.7011 22.2901 18.5673 21.8236 18.4007 21.1573L16.5683 15.0603C16.5017 14.7937 16.6016 14.4939 16.8348 14.3273L21.6991 11.1955C22.2655 10.829 21.999 9.99609 21.3326 9.99609Z" fill="#6A9195"/>
</svg>
