<svg width="24" height="24" viewBox="0 0 24 24" fill="none" xmlns="http://www.w3.org/2000/svg">
<path d="M3.5 4.5C2.11929 4.5 1 5.61929 1 7V19.5C1 20.8808 2.11929 22 3.5 22H21C22.3808 22 23.5 20.8808 23.5 19.5V7C23.5 5.61929 22.3808 4.5 21 4.5H3.5Z" fill="#6A9195"/>
<path d="M1 7C1 5.61929 2.11929 4.5 3.5 4.5H21C22.3808 4.5 23.5 5.61929 23.5 7C23.5 8.38071 22.3808 9.5 21 9.5H12.25H3.5C2.11929 9.5 1 8.38071 1 7Z" fill="#6A9195"/>
<path d="M6 7C5.30965 7 4.75 6.44035 4.75 5.75V3.25C4.75 2.55965 5.30965 2 6 2C6.69035 2 7.25 2.55965 7.25 3.25V5.75C7.25 6.44035 6.69035 7 6 7Z" fill="#6A9195"/>
<path d="M18.5 7C17.8096 7 17.25 6.44035 17.25 5.75V3.25C17.25 2.55965 17.8096 2 18.5 2C19.1904 2 19.75 2.55965 19.75 3.25V5.75C19.75 6.44035 19.1904 7 18.5 7Z" fill="#6A9195"/>
<path d="M15.9883 12.3641L15.107 11.4766L10.9883 15.5953L9.37578 13.9891L8.48828 14.8703L10.9883 17.3641L15.9883 12.3641Z" fill="white"/>
</svg>
