<svg width="14" height="24" viewBox="0 0 14 24" fill="none" xmlns="http://www.w3.org/2000/svg">
<path d="M2.81215 3.78836C3.85828 3.78836 4.70633 2.94031 4.70633 1.89418C4.70633 0.848053 3.85828 0 2.81215 0C1.76602 0 0.917969 0.848053 0.917969 1.89418C0.917969 2.94031 1.76602 3.78836 2.81215 3.78836Z" fill="#6A9195"/>
<path d="M11.2145 23.9993C12.2606 23.9993 13.1087 23.1512 13.1087 22.1051C13.1087 21.059 12.2606 20.2109 11.2145 20.2109C10.1684 20.2109 9.32031 21.059 9.32031 22.1051C9.32031 23.1512 10.1684 23.9993 11.2145 23.9993Z" fill="#6A9195"/>
<path d="M2.61225 10.2335C2.97204 10.2335 3.34241 10.1171 3.64929 9.88431L12.4112 3.21765C13.1625 2.64622 13.3107 1.56685 12.7392 0.804947C12.1678 0.053624 11.0884 -0.0945242 10.3265 0.476904L1.56463 7.14357C0.823892 7.72558 0.675744 8.80495 1.24717 9.55627C1.5858 10.0007 2.10432 10.2335 2.61225 10.2335Z" fill="#6A9195"/>
<path d="M2.61038 17.0577C2.97017 17.0577 3.34054 16.9413 3.64741 16.7085L12.4093 10.0419C13.1606 9.47044 13.3088 8.39107 12.7374 7.62917C12.1659 6.87784 11.0866 6.72969 10.3247 7.30112L1.56276 13.9678C0.811436 14.5392 0.663288 15.6186 1.23472 16.3805C1.58392 16.8249 2.10244 17.0577 2.61038 17.0577Z" fill="#6A9195"/>
<path d="M12.7374 14.5823C12.1659 13.831 11.0866 13.6828 10.3247 14.2542L1.56276 20.9209C0.811436 21.4923 0.663288 22.5717 1.23472 23.3336C1.57334 23.7781 2.08128 24.0109 2.5998 24.0109C2.95958 24.0109 3.32995 23.8945 3.63683 23.6617L12.3987 16.995C13.1712 16.413 13.3194 15.3336 12.7374 14.5823Z" fill="#6A9195"/>
</svg>
