<svg width="49" height="48" viewBox="0 0 49 48" fill="none" xmlns="http://www.w3.org/2000/svg">
<path d="M40.5 4H28.5C26.2909 4 24.5 5.79086 24.5 8V20C24.5 22.2091 26.2909 24 28.5 24H40.5C42.7091 24 44.5 22.2091 44.5 20V8C44.5 5.79086 42.7091 4 40.5 4Z" fill="#6A9195"/>
<path opacity="0.7" d="M24.5 14H22.5C18.7288 14 16.8431 14 15.6716 15.1716C14.5 16.3431 14.5 18.2288 14.5 22V26C14.5 29.7712 14.5 31.6568 15.6716 32.8284C16.8431 34 18.7288 34 22.5 34H26.5C30.2712 34 32.1568 34 33.3284 32.8284C34.5 31.6568 34.5 29.7712 34.5 26V24H32.5C28.7288 24 26.8432 24 25.6716 22.8284C24.5 21.6568 24.5 19.7712 24.5 16V14Z" fill="#6A9195"/>
<path opacity="0.4" d="M14.5 24V26C14.5 29.7712 14.5 31.6568 15.6716 32.8284C16.8431 34 18.7288 34 22.5 34H24.5V36C24.5 39.7712 24.5 41.6568 23.3284 42.8284C22.1568 44 20.2712 44 16.5 44H12.5C8.72876 44 6.84314 44 5.67158 42.8284C4.5 41.6568 4.5 39.7712 4.5 36V32C4.5 28.2288 4.5 26.3432 5.67158 25.1716C6.84314 24 8.72876 24 12.5 24H14.5Z" fill="#6A9195"/>
</svg>
