<svg width="27" height="27" viewBox="0 0 27 27" fill="none" xmlns="http://www.w3.org/2000/svg">
<path d="M24.3985 7.92198C24.28 7.97859 24.1737 8.058 24.0859 8.15567C23.9981 8.25335 23.9303 8.36737 23.8866 8.49123C23.8428 8.61508 23.8239 8.74635 23.8309 8.87753C23.8378 9.00871 23.8706 9.13722 23.9273 9.25573C25.1011 11.7046 25.3285 14.5008 24.566 17.1072C23.8034 19.7135 22.1046 21.9462 19.796 23.3762C17.4874 24.8062 14.7317 25.3326 12.0586 24.8543C9.38537 24.3761 6.9832 22.9269 5.31357 20.7852C3.64394 18.6434 2.82462 15.9603 3.01304 13.2512C3.20145 10.5421 4.38431 7.99821 6.33435 6.10824C8.28438 4.21827 10.864 3.11555 13.5777 3.01195C16.2913 2.90836 18.9476 3.81119 21.036 5.54698L18.1898 8.39323C16.7724 7.33717 15.0079 6.85642 13.2507 7.04752C11.4935 7.23863 9.87361 8.08743 8.71635 9.4235C7.5591 10.7596 6.95014 12.484 7.01175 14.2505C7.07337 16.017 7.80099 17.6948 9.04852 18.947C10.0516 19.9497 11.3356 20.624 12.7305 20.8807C14.1253 21.1374 15.5653 20.9643 16.8596 20.3844C18.1539 19.8045 19.2415 18.845 19.9784 17.6332C20.7153 16.4213 21.0667 15.0142 20.986 13.5982C20.9786 13.4669 20.9454 13.3383 20.8884 13.2198C20.8313 13.1013 20.7514 12.9952 20.6533 12.9076C20.5553 12.82 20.4409 12.7525 20.3167 12.7091C20.1926 12.6656 20.0611 12.6471 19.9298 12.6545C19.7984 12.6619 19.6699 12.6951 19.5514 12.7521C19.4329 12.8092 19.3268 12.8891 19.2391 12.9872C19.1515 13.0852 19.084 13.1996 19.0406 13.3238C18.9972 13.4479 18.9786 13.5794 18.986 13.7107C19.0395 14.6371 18.8342 15.5602 18.393 16.3765C17.9518 17.1929 17.2921 17.8703 16.4877 18.3331C15.6834 18.7958 14.7662 19.0256 13.8387 18.9967C12.9112 18.9678 12.01 18.6814 11.236 18.1695L14.2298 15.1757L18.9485 10.4632L26.706 2.71323C26.7989 2.62032 26.8726 2.51002 26.9229 2.38863C26.9732 2.26724 26.9991 2.13713 26.9991 2.00573C26.9991 1.87434 26.9732 1.74423 26.9229 1.62284C26.8726 1.50144 26.7989 1.39114 26.706 1.29823C26.6131 1.20532 26.5028 1.13162 26.3814 1.08134C26.26 1.03106 26.1299 1.00518 25.9985 1.00518C25.8671 1.00518 25.737 1.03106 25.6156 1.08134C25.4942 1.13162 25.3839 1.20532 25.291 1.29823L22.4573 4.12323C19.906 1.92549 16.6015 0.803452 13.2395 0.993365C9.87749 1.18328 6.72035 2.67033 4.43281 5.1414C2.14527 7.61248 0.905826 10.8748 0.975437 14.2414C1.04505 17.608 2.41829 20.8163 4.80602 23.1907C6.97395 25.3626 9.84028 26.6975 12.8978 26.9592C15.9553 27.221 19.0068 26.3927 21.5123 24.621C24.0179 22.8492 25.8159 20.2483 26.5882 17.2784C27.3605 14.3085 27.0573 11.1611 25.7323 8.39323C25.6757 8.27469 25.5963 8.16847 25.4986 8.08063C25.4009 7.99279 25.2869 7.92505 25.163 7.88129C25.0392 7.83752 24.9079 7.81859 24.7767 7.82558C24.6455 7.83256 24.517 7.86532 24.3985 7.92198Z" fill="white"/>
</svg>
