<svg width="48" height="48" viewBox="0 0 48 48" fill="none" xmlns="http://www.w3.org/2000/svg">
<path fill-rule="evenodd" clip-rule="evenodd" d="M24 44C35.0456 44 44 35.0456 44 24C44 12.9543 35.0456 4 24 4C12.9543 4 4 12.9543 4 24C4 27.1994 4.75124 30.2232 6.08692 32.905C6.44188 33.6176 6.56002 34.4322 6.35424 35.2012L5.16302 39.6534C4.6459 41.586 6.41402 43.354 8.3467 42.837L12.7988 41.6458C13.5679 41.44 14.3824 41.5582 15.0951 41.913C17.7767 43.2488 20.8006 44 24 44ZM16 26.5C15.1716 26.5 14.5 27.1716 14.5 28C14.5 28.8284 15.1716 29.5 16 29.5H27C27.8284 29.5 28.5 28.8284 28.5 28C28.5 27.1716 27.8284 26.5 27 26.5H16ZM14.5 21C14.5 20.1716 15.1716 19.5 16 19.5H32C32.8284 19.5 33.5 20.1716 33.5 21C33.5 21.8284 32.8284 22.5 32 22.5H16C15.1716 22.5 14.5 21.8284 14.5 21Z" fill="#6A9195"/>
</svg>
