<svg width="54" height="54" viewBox="0 0 54 54" fill="none" xmlns="http://www.w3.org/2000/svg">
<g filter="url(#filter0_d_307_6581)">
<path d="M17.3018 10.152V3.70312C15.2283 4.19813 13.4219 6.69855 12.4297 10.152H17.3018Z" fill="#6A9195"/>
<path d="M17.3048 11.6523H12.0708C11.8225 12.8844 11.6786 14.1352 11.6406 15.3914H17.3048V11.6523Z" fill="#6A9195"/>
<path d="M17.3048 16.8945H11.6406C11.6796 18.245 11.8414 19.5892 12.124 20.9104H17.3048V16.8945Z" fill="#6A9195"/>
<path d="M18.8047 3.70312V10.1517H23.676C22.6838 6.69863 20.8778 4.19813 18.8047 3.70312Z" fill="#6A9195"/>
<path d="M25.2415 10.1538H29.8969C29.0335 8.44931 27.8127 6.95097 26.3178 5.76093C24.823 4.57088 23.0891 3.71712 21.2344 3.25781C23.0107 4.60669 24.4334 7.05589 25.2415 10.1538Z" fill="#6A9195"/>
<path d="M25.5234 20.9104H30.442C30.9355 19.6247 31.2249 18.2697 31.2997 16.8945H25.9649C25.9297 18.2431 25.782 19.5864 25.5234 20.9104Z" fill="#6A9195"/>
<path d="M17.3006 28.5827V22.4102H12.5156C13.5239 25.7183 15.2839 28.1017 17.3006 28.5827Z" fill="#6A9195"/>
<path d="M30.5416 11.6523H25.5781C25.8022 12.887 25.931 14.137 25.9633 15.3914H31.2982C31.2282 14.115 30.9733 12.8555 30.5416 11.6523Z" fill="#6A9195"/>
<path d="M21.2422 29.0287C23.0467 28.5824 24.7376 27.7629 26.2059 26.6229C27.6742 25.4829 28.8872 24.0478 29.7667 22.4102H25.1699C24.3517 25.3754 22.9632 27.7195 21.2422 29.0287Z" fill="#6A9195"/>
<path d="M10.5246 11.6523H5.56106C5.12942 12.8556 4.87464 14.115 4.80469 15.3914H10.1396C10.1718 14.137 10.3005 12.887 10.5246 11.6523Z" fill="#6A9195"/>
<path d="M23.5889 22.4102H18.8047V28.5827C20.8214 28.1016 22.5809 25.7181 23.5889 22.4102Z" fill="#6A9195"/>
<path d="M14.8608 29.0287C13.1396 27.7195 11.7513 25.3754 10.9325 22.4102H6.33594C7.21545 24.0479 8.42851 25.483 9.89686 26.623C11.3652 27.763 13.0562 28.5825 14.8608 29.0287Z" fill="#6A9195"/>
<path d="M10.1396 16.8945H4.80469C4.87942 18.2697 5.16871 19.6247 5.66209 20.9104H10.5807C10.3224 19.5864 10.1748 18.2431 10.1396 16.8945Z" fill="#6A9195"/>
<path d="M14.8656 3.25781C13.0109 3.71715 11.2771 4.57094 9.78218 5.761C8.2873 6.95105 7.06655 8.44939 6.20312 10.1539H10.8587C11.6667 7.05596 13.0892 4.60676 14.8656 3.25781Z" fill="#6A9195"/>
<path d="M24.4682 16.8945H18.8047V20.9104H23.9847C24.2674 19.5892 24.4292 18.2451 24.4682 16.8945Z" fill="#6A9195"/>
<path d="M24.038 11.6523H18.8047V15.3914H24.4682C24.4302 14.1352 24.2863 12.8844 24.038 11.6523Z" fill="#6A9195"/>
<path d="M24.5935 42.5032H17.8707C16.9955 42.5022 16.1565 42.1541 15.5376 41.5353C14.9188 40.9164 14.5707 40.0774 14.5696 39.2022V36.3003L15.7354 37.3382C15.8642 37.4527 16.0143 37.5408 16.1771 37.5974C16.3399 37.6539 16.5123 37.6778 16.6844 37.6678C16.8565 37.6577 17.0249 37.6138 17.18 37.5387C17.3351 37.4636 17.4739 37.3586 17.5885 37.2298C17.703 37.101 17.7911 36.9509 17.8476 36.7881C17.9042 36.6253 17.9281 36.4529 17.918 36.2809C17.908 36.1088 17.8641 35.9404 17.789 35.7853C17.7138 35.6301 17.6089 35.4913 17.4801 35.3768L14.1292 32.3943C13.8889 32.1806 13.5785 32.0625 13.2569 32.0625C12.9353 32.0625 12.6249 32.1806 12.3846 32.3943L9.03395 35.3768C8.77385 35.6081 8.61632 35.9333 8.59599 36.2809C8.57567 36.6284 8.69422 36.9697 8.92558 37.2298C9.15693 37.4899 9.48214 37.6474 9.82964 37.6678C10.1772 37.6881 10.5185 37.5695 10.7786 37.3382L11.9446 36.3003V39.2022C11.9465 40.7733 12.5715 42.2795 13.6824 43.3905C14.7934 44.5014 16.2996 45.1263 17.8707 45.1282H24.5935C24.9416 45.1282 25.2755 44.9899 25.5216 44.7438C25.7677 44.4976 25.906 44.1638 25.906 43.8157C25.906 43.4676 25.7677 43.1338 25.5216 42.8876C25.2755 42.6415 24.9416 42.5032 24.5935 42.5032Z" fill="#6A9195"/>
<path d="M31.7891 8.03516H38.5127C39.3877 8.03629 40.2266 8.38446 40.8452 9.0033C41.4639 9.62213 41.8118 10.4611 41.8127 11.3361V14.2487L40.6484 13.2119C40.3881 12.9832 40.0479 12.8668 39.7021 12.888C39.3562 12.9092 39.0328 13.0663 38.8023 13.325C38.5718 13.5837 38.453 13.9231 38.4718 14.269C38.4905 14.615 38.6453 14.9396 38.9024 15.1719L42.2527 18.1543C42.4929 18.3683 42.8035 18.4867 43.1252 18.4868C43.447 18.4869 43.7576 18.3688 43.998 18.155L47.3489 15.1726C47.609 14.9413 47.7665 14.616 47.7869 14.2685C47.8072 13.921 47.6886 13.5797 47.4573 13.3195C47.2259 13.0594 46.9007 12.9019 46.5532 12.8816C46.2057 12.8612 45.8643 12.9798 45.6042 13.2111L44.438 14.2487V11.3361C44.4362 9.76516 43.8115 8.25902 42.7007 7.14809C41.59 6.03715 40.0839 5.41214 38.513 5.41016H31.7891C31.441 5.41016 31.1071 5.54844 30.861 5.79458C30.6148 6.04072 30.4766 6.37456 30.4766 6.72266C30.4766 7.07075 30.6148 7.40459 30.861 7.65073C31.1071 7.89688 31.441 8.03516 31.7891 8.03516Z" fill="#6A9195"/>
<path d="M48.9168 37.0686C47.979 34.8678 46.2151 33.1229 44.0043 32.209C43.8441 32.14 43.7076 32.0256 43.6117 31.8799C43.5158 31.7342 43.4648 31.5635 43.4649 31.3891C43.4637 31.2644 43.4881 31.1408 43.5367 31.0259C43.5853 30.9111 43.6571 30.8075 43.7474 30.7216C43.8026 30.6691 43.8553 30.6172 43.8948 30.5756C44.1742 30.2814 44.4206 29.9575 44.6298 29.6098C45.1804 28.691 45.4533 27.6325 45.4157 26.5621C45.378 25.4917 45.0315 24.455 44.4178 23.5771C43.8041 22.6993 42.9495 22.0177 41.9571 21.6148C40.9647 21.2118 39.8768 21.1046 38.8249 21.3062C37.7528 21.4938 36.7619 21.9998 35.9813 22.7582C35.2006 23.5166 34.6662 24.4924 34.4476 25.5587C34.2455 26.4767 34.28 27.431 34.5476 28.332C34.8153 29.2331 35.3075 30.0514 35.978 30.7103C36.0689 30.7965 36.1418 30.9001 36.1922 31.0148C36.2426 31.1296 36.2696 31.2533 36.2715 31.3787V31.3832C36.2732 31.5592 36.2228 31.7317 36.1267 31.879C36.0306 32.0264 35.8931 32.1421 35.7315 32.2116C33.5203 33.1277 31.757 34.8751 30.8208 37.0778C30.1627 38.5865 29.8326 40.2177 29.8524 41.8635V43.0497C29.8524 43.3039 29.9025 43.5557 29.9997 43.7906C30.097 44.0255 30.2396 44.2389 30.4194 44.4187C30.5991 44.5984 30.8126 44.7411 31.0474 44.8384C31.2823 44.9357 31.5341 44.9857 31.7883 44.9858H47.9508C48.4643 44.9858 48.9567 44.7818 49.3198 44.4187C49.6829 44.0556 49.8869 43.5632 49.8869 43.0497V41.852C49.9066 40.2067 49.5759 38.5762 48.9168 37.0686Z" fill="#6A9195"/>
</g>
<defs>
<filter id="filter0_d_307_6581" x="-0.5" y="0" width="56" height="56" filterUnits="userSpaceOnUse" color-interpolation-filters="sRGB">
<feFlood flood-opacity="0" result="BackgroundImageFix"/>
<feColorMatrix in="SourceAlpha" type="matrix" values="0 0 0 0 0 0 0 0 0 0 0 0 0 0 0 0 0 0 127 0" result="hardAlpha"/>
<feOffset dy="4"/>
<feGaussianBlur stdDeviation="2"/>
<feComposite in2="hardAlpha" operator="out"/>
<feColorMatrix type="matrix" values="0 0 0 0 0 0 0 0 0 0 0 0 0 0 0 0 0 0 0.25 0"/>
<feBlend mode="normal" in2="BackgroundImageFix" result="effect1_dropShadow_307_6581"/>
<feBlend mode="normal" in="SourceGraphic" in2="effect1_dropShadow_307_6581" result="shape"/>
</filter>
</defs>
</svg>
