<svg width="28" height="28" viewBox="0 0 28 28" fill="none" xmlns="http://www.w3.org/2000/svg">
<g filter="url(#filter0_d_307_312)">
<path d="M23.5 16H4.5C4.36739 16 4.24021 16.0527 4.14645 16.1464C4.05268 16.2402 4 16.3674 4 16.5C4.00106 17.4279 4.37015 18.3176 5.0263 18.9737C5.68244 19.6299 6.57207 19.9989 7.5 20H20.5C21.4279 19.9989 22.3176 19.6299 22.9737 18.9737C23.6299 18.3176 23.9989 17.4279 24 16.5C24 16.3674 23.9473 16.2402 23.8536 16.1464C23.7598 16.0527 23.6326 16 23.5 16Z" fill="white"/>
<path d="M20.5 3H17.5V5H19.5C19.8975 5.00119 20.2783 5.1596 20.5593 5.44065C20.8404 5.7217 20.9988 6.10254 21 6.5V14.5C21 14.6326 20.9473 14.7598 20.8536 14.8536C20.7598 14.9473 20.6326 15 20.5 15H7.5C7.36739 15 7.24021 14.9473 7.14645 14.8536C7.05268 14.7598 7 14.6326 7 14.5V6.5C7.00119 6.10254 7.1596 5.7217 7.44065 5.44065C7.7217 5.1596 8.10254 5.00119 8.5 5H10.5V3H7.5C6.83696 3 6.20107 3.26339 5.73223 3.73223C5.26339 4.20107 5 4.83696 5 5.5V16.5C5 16.6326 5.05268 16.7598 5.14645 16.8536C5.24021 16.9473 5.36739 17 5.5 17H22.5C22.6326 17 22.7598 16.9473 22.8536 16.8536C22.9473 16.7598 23 16.6326 23 16.5V5.5C23 4.83696 22.7366 4.20107 22.2678 3.73223C21.7989 3.26339 21.163 3 20.5 3Z" fill="white"/>
<path d="M14 0C13.337 0 12.7011 0.263392 12.2322 0.732233C11.7634 1.20107 11.5 1.83696 11.5 2.5V10.5C11.501 10.6326 11.5529 10.7597 11.645 10.855L13.645 12.855C13.7398 12.948 13.8672 13 14 13C14.1328 13 14.2602 12.948 14.355 12.855L16.355 10.855C16.4471 10.7597 16.499 10.6326 16.5 10.5V2.5C16.5 1.83696 16.2366 1.20107 15.7678 0.732233C15.2989 0.263392 14.663 0 14 0ZM14 11.795L12.5 10.295V4H13.5V9.5C13.5 9.63261 13.5527 9.75979 13.6464 9.85355C13.7402 9.94732 13.8674 10 14 10C14.1326 10 14.2598 9.94732 14.3536 9.85355C14.4473 9.75979 14.5 9.63261 14.5 9.5V4H15.5V10.295L14 11.795Z" fill="white"/>
</g>
<defs>
<filter id="filter0_d_307_312" x="0" y="0" width="28" height="28" filterUnits="userSpaceOnUse" color-interpolation-filters="sRGB">
<feFlood flood-opacity="0" result="BackgroundImageFix"/>
<feColorMatrix in="SourceAlpha" type="matrix" values="0 0 0 0 0 0 0 0 0 0 0 0 0 0 0 0 0 0 127 0" result="hardAlpha"/>
<feOffset dy="4"/>
<feGaussianBlur stdDeviation="2"/>
<feComposite in2="hardAlpha" operator="out"/>
<feColorMatrix type="matrix" values="0 0 0 0 0 0 0 0 0 0 0 0 0 0 0 0 0 0 0.25 0"/>
<feBlend mode="normal" in2="BackgroundImageFix" result="effect1_dropShadow_307_312"/>
<feBlend mode="normal" in="SourceGraphic" in2="effect1_dropShadow_307_312" result="shape"/>
</filter>
</defs>
</svg>
