<svg width="49" height="48" viewBox="0 0 49 48" fill="none" xmlns="http://www.w3.org/2000/svg">
<g clip-path="url(#clip0_307_6674)">
<path d="M24.5 40C28.7435 40 32.8131 38.3143 35.8137 35.3137C38.8143 32.3131 40.5 28.2435 40.5 24C40.5 19.7565 38.8143 15.6869 35.8137 12.6863C32.8131 9.68571 28.7435 8 24.5 8C20.2565 8 16.1869 9.68571 13.1863 12.6863C10.1857 15.6869 8.5 19.7565 8.5 24C8.5 28.2435 10.1857 32.3131 13.1863 35.3137C16.1869 38.3143 20.2565 40 24.5 40ZM24.5 44C13.454 44 4.5 35.046 4.5 24C4.5 12.954 13.454 4 24.5 4C35.546 4 44.5 12.954 44.5 24C44.5 35.046 35.546 44 24.5 44ZM24.5 32C26.6217 32 28.6566 31.1571 30.1569 29.6569C31.6571 28.1566 32.5 26.1217 32.5 24C32.5 21.8783 31.6571 19.8434 30.1569 18.3431C28.6566 16.8429 26.6217 16 24.5 16C22.3783 16 20.3434 16.8429 18.8431 18.3431C17.3429 19.8434 16.5 21.8783 16.5 24C16.5 26.1217 17.3429 28.1566 18.8431 29.6569C20.3434 31.1571 22.3783 32 24.5 32ZM24.5 36C21.3174 36 18.2652 34.7357 16.0147 32.4853C13.7643 30.2348 12.5 27.1826 12.5 24C12.5 20.8174 13.7643 17.7652 16.0147 15.5147C18.2652 13.2643 21.3174 12 24.5 12C27.6826 12 30.7348 13.2643 32.9853 15.5147C35.2357 17.7652 36.5 20.8174 36.5 24C36.5 27.1826 35.2357 30.2348 32.9853 32.4853C30.7348 34.7357 27.6826 36 24.5 36ZM24.5 28C23.4391 28 22.4217 27.5786 21.6716 26.8284C20.9214 26.0783 20.5 25.0609 20.5 24C20.5 22.9391 20.9214 21.9217 21.6716 21.1716C22.4217 20.4214 23.4391 20 24.5 20C25.5609 20 26.5783 20.4214 27.3284 21.1716C28.0786 21.9217 28.5 22.9391 28.5 24C28.5 25.0609 28.0786 26.0783 27.3284 26.8284C26.5783 27.5786 25.5609 28 24.5 28Z" fill="#6A9195"/>
</g>
<defs>
<clipPath id="clip0_307_6674">
<rect width="48" height="48" fill="white" transform="translate(0.5)"/>
</clipPath>
</defs>
</svg>
