<svg width="49" height="48" viewBox="0 0 49 48" fill="none" xmlns="http://www.w3.org/2000/svg">
<g clip-path="url(#clip0_307_6570)">
<path d="M13.9683 27.5117H9.80773C9.31125 27.5117 8.91406 27.9089 8.91406 28.4054V30.1331V37.7393V39.467C8.91406 39.9635 9.31125 40.3607 9.80773 40.3607H13.9683C14.4647 40.3607 14.8619 39.9635 14.8619 39.467V37.7393V30.1331V28.4054C14.8719 27.9089 14.4647 27.5117 13.9683 27.5117Z" fill="#6A9195"/>
<path d="M22.3745 22.5352H18.214C17.7175 22.5352 17.3203 22.9323 17.3203 23.4288V30.1314V32.7528V39.4553C17.3203 39.9518 17.7175 40.349 18.214 40.349H22.3745C22.871 40.349 23.2682 39.9518 23.2682 39.4553V32.7528V30.1314V23.4288C23.2682 22.9323 22.871 22.5352 22.3745 22.5352Z" fill="#6A9195"/>
<path d="M31.6801 25.1873V17.7797H34.5597C35.086 17.7797 35.4137 17.1939 35.1356 16.7471L29.2771 7.34367C29.009 6.91669 28.3934 6.91669 28.1253 7.34367L22.2668 16.7471C21.9888 17.1939 22.3065 17.7797 22.8427 17.7797H25.7223V39.4661C25.7223 39.9626 26.1195 40.3598 26.616 40.3598H30.7765C31.273 40.3598 31.6702 39.9626 31.6702 39.4661C30.002 37.5497 28.9792 35.0574 28.9792 32.3168C28.9991 29.596 30.0119 27.0938 31.6801 25.1873Z" fill="#6A9195"/>
<path d="M39.8576 23.6992C35.0913 23.6992 31.2188 27.5619 31.2188 32.338C31.2188 37.1043 35.0814 40.9768 39.8576 40.9768C44.6238 40.9768 48.4964 37.1142 48.4964 32.338C48.4964 27.5619 44.6337 23.6992 39.8576 23.6992ZM42.34 35.734C41.9626 36.1907 41.4761 36.4986 40.9002 36.6574C40.6519 36.7269 40.5427 36.856 40.5526 37.1142C40.5626 37.3724 40.5526 37.6206 40.5526 37.8788C40.5526 38.1072 40.4335 38.2263 40.215 38.2362C39.937 38.2462 39.6689 38.2462 39.3909 38.2362C39.1526 38.2362 39.0334 38.0972 39.0334 37.8589C39.0334 37.6703 39.0334 37.4816 39.0235 37.3029C39.0235 36.8957 39.0036 36.8759 38.6064 36.8163C38.1 36.7369 37.6035 36.6177 37.1368 36.3993C36.7694 36.2205 36.7396 36.1312 36.8389 35.7538C36.9184 35.4659 36.9978 35.1878 37.0872 34.9098C37.1865 34.5821 37.2758 34.5424 37.5737 34.7013C38.0901 34.9694 38.6263 35.1183 39.2022 35.1878C39.5696 35.2375 39.9271 35.1978 40.2647 35.0488C40.9002 34.7708 40.9995 34.036 40.4633 33.5892C40.2845 33.4402 40.076 33.331 39.8576 33.2317C39.3015 32.9835 38.7156 32.8047 38.1993 32.487C37.3454 31.9806 36.8092 31.2756 36.8687 30.2329C36.9382 29.0612 37.6035 28.3264 38.6759 27.9392C39.1228 27.7803 39.1228 27.7803 39.1228 27.3235C39.1228 27.1647 39.1228 27.0058 39.1228 26.8569C39.1327 26.5093 39.1923 26.4497 39.5398 26.4398C39.649 26.4398 39.7583 26.4398 39.8675 26.4398C40.6122 26.4398 40.6122 26.4398 40.6122 27.1845C40.6122 27.7108 40.6122 27.7108 41.1385 27.7902C41.5357 27.8498 41.9229 27.969 42.2903 28.1378C42.4988 28.2271 42.5684 28.3662 42.5088 28.5846C42.4194 28.9024 42.33 29.23 42.2307 29.5478C42.1315 29.8457 42.0421 29.8953 41.7541 29.7563C41.1782 29.4783 40.5725 29.3591 39.9271 29.3988C39.7583 29.4088 39.5994 29.4286 39.4405 29.4981C38.8845 29.7365 38.7951 30.3521 39.2717 30.7294C39.51 30.9181 39.7781 31.0571 40.0661 31.1763C40.5526 31.3749 41.0491 31.5734 41.5158 31.8316C42.9854 32.6061 43.3826 34.4729 42.34 35.734Z" fill="#6A9195"/>
<path d="M5.5542 33.5195H1.39367C0.897187 33.5195 0.5 33.9167 0.5 34.4132V34.582V36.141V37.7396V38.3354V39.4674C0.5 39.9639 0.897187 40.3611 1.39367 40.3611H5.5542C6.05068 40.3611 6.44787 39.9639 6.44787 39.4674V38.3354V37.7396V36.141V34.8005V34.4132C6.4578 33.9167 6.05068 33.5195 5.5542 33.5195Z" fill="#6A9195"/>
</g>
<defs>
<clipPath id="clip0_307_6570">
<rect width="48" height="48" fill="white" transform="translate(0.5)"/>
</clipPath>
</defs>
</svg>
