<svg width="49" height="48" viewBox="0 0 49 48" fill="none" xmlns="http://www.w3.org/2000/svg">
<path fill-rule="evenodd" clip-rule="evenodd" d="M2.5 24C2.5 11.8497 12.3497 2 24.5 2C36.6502 2 46.5 11.8497 46.5 24C46.5 36.1502 36.6502 46 24.5 46C12.3497 46 2.5 36.1502 2.5 24ZM37.3316 19.4081C38.111 18.6254 38.1082 17.359 37.3254 16.5797L35.9082 15.1685C35.1254 14.3892 33.8592 14.3919 33.0798 15.1746L21.5366 26.7676L14.8945 20.2178C14.108 19.4423 12.8417 19.4512 12.0661 20.2378L10.6618 21.6618C9.88628 22.4482 9.89516 23.7146 10.6817 24.4902L20.1582 33.8348C20.942 34.6078 22.203 34.602 22.9798 33.822L37.3316 19.4081Z" fill="#6A9195"/>
</svg>
