<svg width="48" height="48" viewBox="0 0 48 48" fill="none" xmlns="http://www.w3.org/2000/svg">
<path d="M37.5 6H10.5C6.3 6 3 9.3 3 13.5V34.5C3 38.7 6.3 42 10.5 42H37.5C41.7 42 45 38.7 45 34.5V13.5C45 9.3 41.7 6 37.5 6ZM10.5 16.5C10.5 15.6 11.1 15 12 15H21C21.9 15 22.5 15.6 22.5 16.5V25.5C22.5 26.4 21.9 27 21 27H12C11.1 27 10.5 26.4 10.5 25.5V16.5ZM36 33H12C11.1 33 10.5 32.4 10.5 31.5C10.5 30.6 11.1 30 12 30H36C36.9 30 37.5 30.6 37.5 31.5C37.5 32.4 36.9 33 36 33ZM36 27H27C26.1 27 25.5 26.4 25.5 25.5C25.5 24.6 26.1 24 27 24H36C36.9 24 37.5 24.6 37.5 25.5C37.5 26.4 36.9 27 36 27Z" fill="#6A9195"/>
</svg>
