<svg width="11" height="22" viewBox="0 0 11 22" fill="none" xmlns="http://www.w3.org/2000/svg">
<path d="M10.7508 15.5019C10.6811 15.4316 10.5981 15.3758 10.5067 15.3377C10.4153 15.2996 10.3173 15.28 10.2183 15.28C10.1193 15.28 10.0213 15.2996 9.92987 15.3377C9.83848 15.3758 9.75553 15.4316 9.68581 15.5019L6.23581 18.9519L6.23581 1.29688C6.23581 1.09796 6.15679 0.907197 6.01614 0.766545C5.87549 0.625893 5.68472 0.546875 5.48581 0.546875C5.28689 0.546875 5.09613 0.625893 4.95548 0.766545C4.81483 0.907197 4.73581 1.09796 4.73581 1.29688L4.73581 18.9369L1.30831 15.5019C1.16779 15.3622 0.977696 15.2838 0.779557 15.2838C0.581418 15.2838 0.39133 15.3622 0.250808 15.5019C0.111119 15.6424 0.0327129 15.8325 0.0327129 16.0306C0.0327129 16.2288 0.111119 16.4189 0.250808 16.5594L5.02081 21.3294C5.08241 21.3936 5.15635 21.4447 5.23819 21.4796C5.32003 21.5145 5.40809 21.5324 5.49706 21.5324C5.58603 21.5324 5.67408 21.5145 5.75593 21.4796C5.83777 21.4447 5.91171 21.3936 5.97331 21.3294L10.7508 16.5669C10.8211 16.4972 10.8769 16.4142 10.915 16.3228C10.9531 16.2314 10.9727 16.1334 10.9727 16.0344C10.9727 15.9354 10.9531 15.8373 10.915 15.7459C10.8769 15.6545 10.8211 15.5716 10.7508 15.5019Z" fill="#4B5563"/>
</svg>
