<svg width="24" height="23" viewBox="0 0 24 23" fill="none" xmlns="http://www.w3.org/2000/svg">
<path fill-rule="evenodd" clip-rule="evenodd" d="M23.4665 11.5138C23.4665 5.56535 18.3172 0.742188 11.9665 0.742188C5.61588 0.742188 0.466553 5.56535 0.466553 11.5138C0.466553 16.8899 4.67124 21.3462 10.1697 22.155L10.1697 14.6284L7.24898 14.6284L7.24898 11.5138L10.1697 11.5138L10.1697 9.14065C10.1697 6.4415 11.887 4.94935 14.5135 4.94935C15.7718 4.94935 17.0882 5.15997 17.0882 5.15997L17.0882 7.81103L15.6373 7.81103C14.2096 7.81103 13.7629 8.64102 13.7629 9.49409L13.7629 11.5138L16.9521 11.5138L16.4428 14.6284L13.7634 14.6284L13.7634 22.156C19.2619 21.3476 23.4665 16.8914 23.4665 11.5138Z" fill="white"/>
</svg>
