<svg width="49" height="52" viewBox="0 0 49 52" fill="none" xmlns="http://www.w3.org/2000/svg">
<g filter="url(#filter0_d_307_6646)">
<path fill-rule="evenodd" clip-rule="evenodd" d="M42.1884 27.7665C37.9956 29.1845 34.0862 31.331 30.6395 34.1078C26.2795 37.7411 23.1743 44 23.1743 44L20.6358 43.6851C20.6358 43.6851 19.4587 36.4186 15.6219 31.4483C13.0403 28.2476 9.96028 25.4829 6.5 23.2613L7.08617 20.5774C11.1275 19.5091 14.8666 17.5194 18.0102 14.7642C22.8546 10.5108 25.33 4 25.33 4L27.9508 4.06298C27.9508 4.06298 29.2297 10.787 32.7952 16.1739C35.7987 20.6888 42.4016 25.0295 42.4016 25.0295L42.1884 27.7665Z" fill="#6A9195"/>
</g>
<defs>
<filter id="filter0_d_307_6646" x="-3.5" y="0" width="56" height="56" filterUnits="userSpaceOnUse" color-interpolation-filters="sRGB">
<feFlood flood-opacity="0" result="BackgroundImageFix"/>
<feColorMatrix in="SourceAlpha" type="matrix" values="0 0 0 0 0 0 0 0 0 0 0 0 0 0 0 0 0 0 127 0" result="hardAlpha"/>
<feOffset dy="4"/>
<feGaussianBlur stdDeviation="2"/>
<feComposite in2="hardAlpha" operator="out"/>
<feColorMatrix type="matrix" values="0 0 0 0 0 0 0 0 0 0 0 0 0 0 0 0 0 0 0.25 0"/>
<feBlend mode="normal" in2="BackgroundImageFix" result="effect1_dropShadow_307_6646"/>
<feBlend mode="normal" in="SourceGraphic" in2="effect1_dropShadow_307_6646" result="shape"/>
</filter>
</defs>
</svg>
