<svg width="24" height="24" viewBox="0 0 24 24" fill="none" xmlns="http://www.w3.org/2000/svg">
<path d="M14.2191 11.5355C14.3387 11.5355 14.4534 11.488 14.538 11.4035C14.6225 11.3189 14.67 11.2042 14.67 11.0846C14.67 10.6388 14.7819 9.89058 15.5298 9.89058C16.2777 9.89058 16.3899 10.6387 16.3899 11.0846C16.3899 11.2042 16.4374 11.3189 16.5219 11.4035C16.6065 11.488 16.7212 11.5355 16.8408 11.5355H19.0081C19.1276 11.5355 19.2423 11.488 19.3269 11.4035C19.4114 11.3189 19.4589 11.2042 19.4589 11.0846V4.60956C19.4587 4.36249 19.3605 4.1256 19.1858 3.95089C19.0111 3.77619 18.7742 3.67795 18.5271 3.67774H17.2648C17.1285 2.64546 16.4778 2 15.5297 2C14.5816 2 13.9312 2.64546 13.7948 3.67774H5.57663C5.32956 3.67796 5.09267 3.7762 4.91797 3.9509C4.74327 4.12561 4.64502 4.36249 4.64481 4.60956V12.8323C3.63177 12.9781 3 13.6252 3 14.5629C3 15.5006 3.63177 16.1473 4.64481 16.2932V17.5599C4.64502 17.807 4.74327 18.0439 4.91797 18.2186C5.09267 18.3933 5.32956 18.4915 5.57663 18.4917H11.5704C11.8175 18.4915 12.0544 18.3933 12.2291 18.2186C12.4038 18.0439 12.502 17.807 12.5023 17.5599V11.5355H14.2191ZM13.8869 4.57924C13.9197 4.57923 13.9523 4.57574 13.9844 4.56882C14.0102 4.56651 14.0454 4.56424 14.0809 4.56197C14.2421 4.55118 14.67 4.52316 14.67 4.09523C14.67 3.64936 14.7818 2.90149 15.5297 2.90149C16.2776 2.90149 16.3898 3.64936 16.3898 4.09523C16.3898 4.52273 16.8177 4.55118 16.9788 4.56197C17.014 4.56424 17.0489 4.56651 17.0747 4.56848C17.1069 4.57571 17.1398 4.57932 17.1728 4.57924H18.5267C18.5307 4.5792 18.5347 4.57996 18.5384 4.58147C18.5421 4.58299 18.5454 4.58522 18.5483 4.58804C18.5511 4.59086 18.5533 4.59422 18.5548 4.59792C18.5563 4.60161 18.5571 4.60557 18.5571 4.60956V10.634H17.2601C17.1143 9.62099 16.4672 8.98922 15.5295 8.98922C14.5918 8.98922 13.945 9.62099 13.7993 10.634H12.5023V8.76221C12.5024 8.64442 12.4563 8.53127 12.374 8.447C12.2917 8.36273 12.1797 8.31403 12.062 8.31133C11.53 8.29894 10.8959 8.14009 10.8959 7.45322C10.8959 6.76634 11.53 6.6075 12.062 6.59511C12.1797 6.5924 12.2917 6.5437 12.374 6.45943C12.4563 6.37516 12.5024 6.26201 12.5023 6.14423V4.57924H13.8869ZM11.6008 17.56C11.6007 17.568 11.5975 17.5757 11.5918 17.5814C11.5862 17.5871 11.5785 17.5903 11.5704 17.5904H5.57663C5.5686 17.5903 5.5609 17.5871 5.55523 17.5814C5.54955 17.5757 5.54634 17.568 5.54631 17.56V15.8734C5.54631 15.7538 5.4988 15.6391 5.41425 15.5545C5.32969 15.47 5.21501 15.4225 5.09543 15.4225C4.64956 15.4225 3.90136 15.3106 3.90136 14.5627C3.90136 13.8148 4.64949 13.7027 5.09543 13.7027C5.15464 13.7027 5.21327 13.691 5.26797 13.6683C5.32267 13.6457 5.37238 13.6125 5.41425 13.5706C5.45612 13.5287 5.48933 13.479 5.51199 13.4243C5.53464 13.3696 5.54631 13.311 5.54631 13.2518V11.5351H6.84311C6.98889 12.5482 7.63599 13.1796 8.57369 13.1796C9.51138 13.1796 10.1582 12.5482 10.304 11.5351H11.6008V17.56Z" fill="white"/>
<path d="M21.9025 19.2988C21.9021 19.1795 21.8544 19.0652 21.7699 18.981C21.6854 18.8968 21.5709 18.8496 21.4516 18.8497H21.4496C21.117 18.8618 20.7881 18.7771 20.5027 18.6059C20.3968 18.5287 20.312 18.4262 20.2559 18.3078C20.1999 18.1893 20.1745 18.0587 20.1821 17.9279C20.1782 17.121 20.9675 16.9961 21.4385 16.9938C21.4977 16.9935 21.5562 16.9816 21.6107 16.9587C21.6653 16.9359 21.7148 16.9025 21.7565 16.8605C21.7981 16.8185 21.8311 16.7687 21.8535 16.7139C21.8758 16.6592 21.8872 16.6005 21.887 16.5414L21.8791 14.5629C21.8787 14.4436 21.831 14.3294 21.7465 14.2452C21.6619 14.1611 21.5475 14.1138 21.4283 14.1138H21.4266L19.6787 14.1206C19.6347 13.7708 19.5066 13.4367 19.3054 13.1471C19.1512 12.9342 18.9469 12.7626 18.7107 12.6472C18.4746 12.5318 18.2136 12.4762 17.9509 12.4853H17.9409C17.6761 12.4771 17.4134 12.5345 17.1763 12.6524C16.9391 12.7704 16.7349 12.9453 16.5818 13.1615C16.3836 13.4533 16.2587 13.7886 16.2177 14.139L14.471 14.1457C14.4117 14.1458 14.3531 14.1576 14.2984 14.1805C14.2437 14.2033 14.194 14.2367 14.1523 14.2788C14.1105 14.3208 14.0774 14.3707 14.055 14.4256C14.0326 14.4805 14.0212 14.5392 14.0215 14.5985L14.0512 21.0741C14.0523 21.3204 14.1509 21.5562 14.3255 21.73C14.5001 21.9038 14.7364 22.0013 14.9827 22.0013H14.9872L20.9817 21.9736C21.2287 21.9722 21.4651 21.8729 21.6389 21.6975C21.8127 21.522 21.9099 21.2847 21.909 21.0378L21.9025 19.2988Z" fill="white"/>
</svg>
