<svg width="49" height="48" viewBox="0 0 49 48" fill="none" xmlns="http://www.w3.org/2000/svg">
<path d="M15.7972 41.8197C15.7372 41.8197 15.6572 41.8597 15.5972 41.8597C11.7172 39.9397 8.55719 36.7597 6.61719 32.8797C6.61719 32.8197 6.65719 32.7397 6.65719 32.6797C9.09719 33.3997 11.6172 33.9397 14.1172 34.3597C14.5572 36.8797 15.0772 39.3797 15.7972 41.8197Z" fill="#6A9195"/>
<path d="M42.3781 32.8997C40.3981 36.8797 37.0981 40.0997 33.0781 42.0397C33.8381 39.4997 34.4781 36.9397 34.8981 34.3597C37.4181 33.9397 39.8981 33.3997 42.3381 32.6797C42.3181 32.7597 42.3781 32.8397 42.3781 32.8997Z" fill="#6A9195"/>
<path d="M42.5381 15.4209C40.0181 14.6609 37.4781 14.0409 34.8981 13.6009C34.4781 11.0209 33.8581 8.46094 33.0781 5.96094C37.2181 7.94094 40.5581 11.2809 42.5381 15.4209Z" fill="#6A9195"/>
<path d="M15.8009 6.17719C15.0809 8.61719 14.5609 11.0972 14.1409 13.6172C11.5609 14.0172 9.00094 14.6572 6.46094 15.4172C8.40094 11.3972 11.6209 8.09719 15.6009 6.11719C15.6609 6.11719 15.7409 6.17719 15.8009 6.17719Z" fill="#6A9195"/>
<path d="M31.4834 13.18C26.8434 12.66 22.1634 12.66 17.5234 13.18C18.0234 10.44 18.6634 7.7 19.5634 5.06C19.6034 4.9 19.5834 4.78 19.6034 4.62C21.1834 4.24 22.8034 4 24.5034 4C26.1834 4 27.8234 4.24 29.3834 4.62C29.4034 4.78 29.4034 4.9 29.4434 5.06C30.3434 7.72 30.9834 10.44 31.4834 13.18Z" fill="#6A9195"/>
<path d="M13.68 30.9834C10.92 30.4834 8.2 29.8434 5.56 28.9434C5.4 28.9034 5.28 28.9234 5.12 28.9034C4.74 27.3234 4.5 25.7034 4.5 24.0034C4.5 22.3234 4.74 20.6834 5.12 19.1234C5.28 19.1034 5.4 19.1034 5.56 19.0634C8.22 18.1834 10.92 17.5234 13.68 17.0234C13.18 21.6634 13.18 26.3434 13.68 30.9834Z" fill="#6A9195"/>
<path d="M44.5003 24.0034C44.5003 25.7034 44.2603 27.3234 43.8803 28.9034C43.7203 28.9234 43.6003 28.9034 43.4403 28.9434C40.7803 29.8234 38.0603 30.4834 35.3203 30.9834C35.8403 26.3434 35.8403 21.6634 35.3203 17.0234C38.0603 17.5234 40.8003 18.1634 43.4403 19.0634C43.6003 19.1034 43.7203 19.1234 43.8803 19.1234C44.2603 20.7034 44.5003 22.3234 44.5003 24.0034Z" fill="#6A9195"/>
<path d="M31.4834 34.8203C30.9834 37.5803 30.3434 40.3003 29.4434 42.9403C29.4034 43.1003 29.4034 43.2203 29.3834 43.3803C27.8234 43.7603 26.1834 44.0003 24.5034 44.0003C22.8034 44.0003 21.1834 43.7603 19.6034 43.3803C19.5834 43.2203 19.6034 43.1003 19.5634 42.9403C18.6834 40.2803 18.0234 37.5803 17.5234 34.8203C19.8434 35.0803 22.1634 35.2603 24.5034 35.2603C26.8434 35.2603 29.1834 35.0803 31.4834 34.8203Z" fill="#6A9195"/>
<path d="M32.0266 31.5266C27.0244 32.1578 21.9756 32.1578 16.9733 31.5266C16.3422 26.5244 16.3422 21.4756 16.9733 16.4733C21.9756 15.8422 27.0244 15.8422 32.0266 16.4733C32.6578 21.4756 32.6578 26.5244 32.0266 31.5266Z" fill="#6A9195"/>
</svg>
