<svg width="21" height="21" viewBox="0 0 21 21" fill="none" xmlns="http://www.w3.org/2000/svg">
<path fill-rule="evenodd" clip-rule="evenodd" d="M13.8624 0.171875C10.2815 0.171875 7.37866 3.07474 7.37866 6.65561C7.37866 10.2365 10.2815 13.1393 13.8624 13.1393C17.4433 13.1393 20.3461 10.2365 20.3461 6.65561C20.3461 3.07474 17.4433 0.171875 13.8624 0.171875ZM14.0734 3.98495C14.3547 3.70361 14.8109 3.70361 15.0922 3.98495L17.2535 6.1462C17.5348 6.42752 17.5348 6.88369 17.2535 7.16501L15.0922 9.32625C14.8109 9.60758 14.3547 9.60758 14.0734 9.32625C13.7921 9.04493 13.7921 8.58877 14.0734 8.30744L15.0048 7.37602H10.9807C10.5828 7.37602 10.2603 7.05349 10.2603 6.65561C10.2603 6.25772 10.5828 5.93519 10.9807 5.93519H15.0048L14.0734 5.00378C13.7921 4.72243 13.7921 4.26629 14.0734 3.98495Z" fill="white"/>
<path d="M1.7675 6.48861C2.51843 5.7423 3.73102 5.75272 4.47813 6.49523L6.04878 8.0563C6.77949 8.78262 6.81912 9.95546 6.1224 10.7214L5.43852 11.4732C5.29576 11.6302 5.28091 11.8442 5.37593 11.9995C6.24192 13.415 7.0392 14.215 8.48688 15.0908C8.64731 15.1879 8.86841 15.1715 9.02776 15.0283L9.78427 14.3485C10.5519 13.6588 11.7246 13.6974 12.4533 14.4217L14.0095 15.9685C14.7894 16.7436 14.7407 17.9834 13.9761 18.7434C12.2602 20.4488 9.52708 20.9309 7.43233 19.4984C4.91769 17.7786 2.95906 15.7999 1.0628 13.0888C-0.401325 10.9955 0.0181288 8.22733 1.7675 6.48861Z" fill="white"/>
</svg>
