<svg width="23" height="23" viewBox="0 0 23 23" fill="none" xmlns="http://www.w3.org/2000/svg">
<path d="M20.727 0.40625L2.57501 0.40625C1.58315 0.40625 0.716553 1.11992 0.716553 2.10012L0.716553 20.2924C0.716553 21.2779 1.58315 22.1562 2.57501 22.1562L20.7216 22.1562C21.7188 22.1562 22.4665 21.2721 22.4665 20.2924L22.4665 2.10012C22.4723 1.11992 21.7188 0.40625 20.727 0.40625ZM7.45854 18.5359L4.34267 18.5359L4.34267 8.84794L7.45854 8.84794L7.45854 18.5359ZM6.00839 7.37496L5.98605 7.37496C4.98886 7.37496 4.34316 6.63265 4.34316 5.70342C4.34316 4.75721 5.00585 4.03237 6.02538 4.03237C7.04491 4.03237 7.66876 4.75187 7.69109 5.70342C7.69061 6.63265 7.04491 7.37496 6.00839 7.37496ZM18.8462 18.5359L15.7303 18.5359L15.7303 13.2387C15.7303 11.9696 15.2769 11.1026 14.1496 11.1026C13.2883 11.1026 12.7785 11.6851 12.5518 12.2527C12.4669 12.4566 12.444 12.7343 12.444 13.0178L12.444 18.5359L9.32816 18.5359L9.32816 8.84794L12.444 8.84794L12.444 10.1961C12.8975 9.55044 13.6058 8.62122 15.254 8.62122C17.2994 8.62122 18.8467 9.96942 18.8467 12.876L18.8462 18.5359Z" fill="white"/>
</svg>
