<svg width="20" height="20" viewBox="0 0 20 20" fill="none" xmlns="http://www.w3.org/2000/svg">
<path fill-rule="evenodd" clip-rule="evenodd" d="M14.6516 0C11.699 0 9.30273 2.39628 9.30273 5.34884C9.30273 8.3014 11.699 10.6977 14.6516 10.6977C17.6041 10.6977 20.0004 8.3014 20.0004 5.34884C20.0004 2.39628 17.6041 0 14.6516 0ZM14.6516 1.39535C16.8339 1.39535 18.6051 3.16651 18.6051 5.34884C18.6051 7.53116 16.8339 9.30233 14.6516 9.30233C12.4692 9.30233 10.6981 7.53116 10.6981 5.34884C10.6981 3.16651 12.4692 1.39535 14.6516 1.39535Z" fill="white"/>
<path fill-rule="evenodd" clip-rule="evenodd" d="M10.7062 8.01502C10.4625 8.28199 10.4625 8.6913 10.7062 8.95827C11.6848 10.0262 13.0904 10.6959 14.6513 10.6959C16.2123 10.6959 17.6179 10.0262 18.5965 8.95827C18.8402 8.6913 18.8402 8.28199 18.5965 8.01502C17.6179 6.94711 16.2123 6.27734 14.6513 6.27734C13.0904 6.27734 11.6848 6.94711 10.7062 8.01502Z" fill="white"/>
<path d="M14.6518 6.51054C15.9361 6.51054 16.9773 5.46934 16.9773 4.18496C16.9773 2.90057 15.9361 1.85938 14.6518 1.85938C13.3674 1.85938 12.3262 2.90057 12.3262 4.18496C12.3262 5.46934 13.3674 6.51054 14.6518 6.51054Z" fill="white"/>
<path fill-rule="evenodd" clip-rule="evenodd" d="M8.20093 18.705C9.74698 17.1589 11.4 15.505 11.4 15.505C11.6726 15.2334 11.6726 14.7915 11.4 14.5189L9.42698 12.545C9.15442 12.2734 8.71256 12.2734 8.44 12.545L5.5693 15.4157C5.29767 15.6883 4.85581 15.6883 4.58326 15.4157C4.58233 15.4157 4.58233 15.4148 4.5814 15.4148C4.30977 15.1431 4.30977 14.7022 4.5814 14.4306L7.45395 11.5589C7.72558 11.2864 7.72558 10.8445 7.45395 10.572L5.48 8.59895C5.20744 8.32639 4.76558 8.32639 4.49395 8.59895C4.49395 8.59895 2.84 10.252 1.29395 11.798C0.465116 12.6269 0 13.7506 0 14.9227C0 16.0948 0.465116 17.2185 1.29395 18.0473C1.51256 18.265 1.73395 18.4864 1.95163 18.705C2.78047 19.5338 3.90419 19.999 5.07628 19.999C6.24837 19.999 7.37209 19.5338 8.20093 18.705ZM7.67442 15.132L8.83721 13.9692L10 15.132L8.83721 16.2948L7.67442 15.132ZM3.70419 11.1617L4.86698 9.99895L6.02977 11.1617L4.86698 12.3245L3.70419 11.1617Z" fill="white"/>
<path fill-rule="evenodd" clip-rule="evenodd" d="M12.3872 13.8634L13.8951 12.3545C14.1677 12.0829 14.1677 11.6401 13.8951 11.3685C13.6226 11.0959 13.1807 11.0959 12.9091 11.3685L11.4003 12.8764C11.1286 13.1489 11.1286 13.5908 11.4003 13.8634C11.6728 14.135 12.1147 14.135 12.3872 13.8634Z" fill="white"/>
<path fill-rule="evenodd" clip-rule="evenodd" d="M7.12429 8.60165L8.6322 7.09281C8.90476 6.82118 8.90476 6.37932 8.6322 6.10676C8.36057 5.8342 7.91778 5.8342 7.64615 6.10676L6.13731 7.61467C5.86569 7.88723 5.86569 8.32909 6.13731 8.60165C6.40987 8.87327 6.85173 8.87327 7.12429 8.60165Z" fill="white"/>
<path fill-rule="evenodd" clip-rule="evenodd" d="M11.0713 12.5444L11.5922 12.0234C11.8648 11.7509 11.8648 11.309 11.5922 11.0364C11.3206 10.7639 10.8778 10.7639 10.6062 11.0364L10.0843 11.5583C9.81174 11.8299 9.81174 12.2727 10.0843 12.5444C10.3569 12.8169 10.7987 12.8169 11.0713 12.5444Z" fill="white"/>
<path fill-rule="evenodd" clip-rule="evenodd" d="M8.44047 9.91545L8.96233 9.39359C9.23488 9.12196 9.23488 8.67917 8.96233 8.40754C8.68977 8.13499 8.24791 8.13499 7.97535 8.40754L7.45442 8.92847C7.18186 9.20103 7.18186 9.64289 7.45442 9.91545C7.72605 10.188 8.16884 10.188 8.44047 9.91545Z" fill="white"/>
</svg>
