<svg width="49" height="48" viewBox="0 0 49 48" fill="none" xmlns="http://www.w3.org/2000/svg">
<path d="M18.5 39.75H2V46.5H18.5V39.75Z" fill="#6A9195"/>
<path d="M41 18.75H23.75V20.25H41V18.75Z" fill="#6A9195"/>
<path d="M32.75 11.25V1.5H20V4.5L17 6.75L20 7.5V11.25H32.75ZM24.2803 5.46975L26 7.18946L29.2197 3.96971L30.2803 5.03025L26.5303 8.78025C26.4606 8.84991 26.378 8.90517 26.287 8.94287C26.196 8.98057 26.0985 8.99998 26 8.99998C25.9015 8.99998 25.804 8.98057 25.713 8.94287C25.622 8.90517 25.5393 8.84991 25.4697 8.78025L23.2197 6.53025L24.2803 5.46975Z" fill="#6A9195"/>
<path d="M32 41.9994V46.4994H38V41.9994C37.9988 41.4395 37.8405 40.8912 37.543 40.4168C37.2455 39.9425 36.8208 39.5612 36.3172 39.3163C36.7029 39.0378 36.9904 38.6442 37.1384 38.1921C37.2863 37.74 37.2872 37.2527 37.1409 36.8C36.9945 36.3474 36.7085 35.9528 36.3238 35.6729C35.9392 35.393 35.4757 35.2422 35 35.2422C34.5243 35.2422 34.0608 35.393 33.6762 35.6729C33.2915 35.9528 33.0055 36.3474 32.8591 36.8C32.7128 37.2527 32.7137 37.74 32.8616 38.1921C33.0096 38.6442 33.2971 39.0378 33.6828 39.3163C33.1792 39.5612 32.7545 39.9425 32.457 40.4168C32.1595 40.8912 32.0012 41.4395 32 41.9994Z" fill="#6A9195"/>
<path d="M45.3172 39.3163C45.7029 39.0378 45.9904 38.6442 46.1384 38.1921C46.2863 37.74 46.2872 37.2527 46.1409 36.8C45.9945 36.3474 45.7085 35.9528 45.3238 35.6729C44.9392 35.393 44.4757 35.2422 44 35.2422C43.5243 35.2422 43.0608 35.393 42.6762 35.6729C42.2915 35.9528 42.0055 36.3474 41.8591 36.8C41.7128 37.2527 41.7137 37.74 41.8616 38.1921C42.0096 38.6442 42.2971 39.0378 42.6828 39.3163C42.1792 39.5612 41.7545 39.9425 41.457 40.4168C41.1595 40.8912 41.0012 41.4395 41 41.9994V46.4994H47V41.9994C46.9988 41.4395 46.8405 40.8912 46.543 40.4168C46.2455 39.9425 45.8208 39.5612 45.3172 39.3163Z" fill="#6A9195"/>
<path d="M29 41.9994C28.9988 41.4395 28.8405 40.8912 28.543 40.4168C28.2455 39.9425 27.8208 39.5612 27.3172 39.3163C27.7029 39.0378 27.9904 38.6442 28.1384 38.1921C28.2863 37.74 28.2872 37.2527 28.1409 36.8C27.9945 36.3474 27.7085 35.9528 27.3238 35.6729C26.9392 35.393 26.4757 35.2422 26 35.2422C25.5243 35.2422 25.0608 35.393 24.6762 35.6729C24.2915 35.9528 24.0055 36.3474 23.8591 36.8C23.7128 37.2527 23.7137 37.74 23.8616 38.1921C24.0096 38.6442 24.2971 39.0378 24.6828 39.3163C24.1792 39.5612 23.7545 39.9425 23.457 40.4168C23.1595 40.8912 23.0012 41.4395 23 41.9994V46.4994H29V41.9994Z" fill="#6A9195"/>
<path d="M23 18.001H12.9654C13.4274 17.6004 13.7559 17.0682 13.907 16.4756C14.0581 15.8831 14.0245 15.2585 13.8107 14.6855C13.5969 14.1126 13.2131 13.6187 12.7108 13.27C12.2084 12.9213 11.6115 12.7344 11 12.7344C10.3885 12.7344 9.79155 12.9213 9.2892 13.27C8.78685 13.6187 8.40307 14.1126 8.18927 14.6855C7.97547 15.2585 7.94186 15.8831 8.09294 16.4756C8.24403 17.0682 8.57259 17.6004 9.03461 18.001H7.62216C7.17932 18.001 6.74082 18.0883 6.33169 18.2577C5.92256 18.4272 5.55081 18.6756 5.23768 18.9887C4.92454 19.3019 4.67615 19.6736 4.50668 20.0827C4.33722 20.4919 4.25 20.9304 4.25 21.3732V28.501H6.5V22.4367C6.50299 22.1552 6.57249 21.8784 6.70283 21.6289C6.83317 21.3794 7.02066 21.1643 7.25 21.001V39.001H10.625V28.501H11.375V39.001H14.75V20.251H23V18.001Z" fill="#6A9195"/>
</svg>
