<svg width="20" height="20" viewBox="0 0 20 20" fill="none" xmlns="http://www.w3.org/2000/svg">
<path d="M19.1368 4.46484H18.175V13.2924C18.175 14.1645 17.4653 14.8739 16.5935 14.8739H3.40594C2.53383 14.8739 1.82446 14.1645 1.82446 13.2924V4.46484H0.862628C0.38617 4.46484 0 4.85101 0 5.32747V16.2541C0 16.7306 0.38617 17.1167 0.862628 17.1167H19.1368C19.6133 17.1167 19.9995 16.7306 19.9995 16.2541V5.32747C19.9995 4.85101 19.6133 4.46484 19.1368 4.46484ZM9.99958 16.3547C9.80118 16.3547 9.64016 16.1937 9.64016 15.9953C9.64016 15.7969 9.80118 15.6359 9.99958 15.6359C10.1983 15.6359 10.359 15.7969 10.359 15.9953C10.359 16.1937 10.1983 16.3547 9.99958 16.3547Z" fill="#6A9195"/>
<path d="M12.6202 19.8763L12.5647 20.0002H7.43289L7.3771 19.8763C7.16835 19.4094 7.26899 18.8622 7.63072 18.5004L8.29523 17.8359H11.7023L12.3668 18.5004C12.7283 18.8622 12.8292 19.4094 12.6202 19.8763Z" fill="#6A9195"/>
<path d="M2.54297 0.862628V2.95594H17.4575V0.862628C17.4575 0.388183 17.0693 0 16.5948 0H3.4056C2.93115 0 2.54297 0.388183 2.54297 0.862628ZM14.7971 1.478C14.7971 1.28031 14.9589 1.11857 15.1566 1.11857H15.9617C16.1594 1.11857 16.3211 1.28031 16.3211 1.478C16.3211 1.67568 16.1594 1.83743 15.9617 1.83743H15.1566C14.9589 1.83743 14.7971 1.67568 14.7971 1.478ZM12.3962 1.478C12.3962 1.28031 12.5579 1.11857 12.7556 1.11857H13.5607C13.7584 1.11857 13.9201 1.28031 13.9201 1.478C13.9201 1.67568 13.7584 1.83743 13.5607 1.83743H12.7556C12.5579 1.83743 12.3962 1.67568 12.3962 1.478ZM9.99518 1.478C9.99518 1.28031 10.1569 1.11857 10.3546 1.11857H11.1597C11.3574 1.11857 11.5192 1.28031 11.5192 1.478C11.5192 1.67568 11.3574 1.83743 11.1597 1.83743H10.3546C10.1569 1.83743 9.99518 1.67568 9.99518 1.478Z" fill="#6A9195"/>
<path d="M13.1428 5.95703C12.736 5.95703 12.4062 6.28679 12.4062 6.69351C12.4062 7.10027 12.736 7.43003 13.1428 7.43003C13.5495 7.43003 13.8793 7.10027 13.8793 6.69351C13.8793 6.28679 13.5495 5.95703 13.1428 5.95703Z" fill="#6A9195"/>
<path d="M13.1407 10.7891C12.9425 10.7891 12.7812 10.9428 12.7812 11.1317C12.7812 11.3207 12.9425 11.4744 13.1407 11.4744C13.3389 11.4744 13.5001 11.3207 13.5001 11.1317C13.5001 10.9428 13.3389 10.7891 13.1407 10.7891Z" fill="#6A9195"/>
<path d="M2.54297 3.67188V13.2893C2.54297 13.7637 2.93115 14.1519 3.4056 14.1519H16.5948C17.0693 14.1519 17.4575 13.7637 17.4575 13.2893V3.67188H2.54297ZM11.1669 9.21987C11.1669 9.37566 11.0503 9.50683 10.8955 9.52506L10.4021 9.58323C10.3414 9.86365 10.2307 10.1257 10.0798 10.3594L10.3881 10.7502C10.4846 10.8725 10.4743 11.0477 10.3642 11.1578L10.1717 11.3503C10.0615 11.4605 9.88635 11.4708 9.76403 11.3742L9.37329 11.0659C9.13954 11.2168 8.87753 11.3275 8.59709 11.3882L8.53892 11.8817C8.52066 12.0364 8.38952 12.153 8.23373 12.153H7.96157C7.80578 12.153 7.67463 12.0364 7.65637 11.8817L7.5982 11.3882C7.31779 11.3275 7.05575 11.2168 6.82201 11.0659L6.43126 11.3742C6.30894 11.4708 6.13377 11.4605 6.02359 11.3503L5.83113 11.1578C5.72098 11.0477 5.71068 10.8725 5.80718 10.7502L6.11551 10.3594C5.96458 10.1257 5.85391 9.86365 5.79321 9.58323L5.29976 9.52506C5.145 9.50681 5.02843 9.37566 5.02843 9.21987V8.94768C5.02843 8.79189 5.14503 8.66074 5.29976 8.64248L5.79321 8.58431C5.85394 8.3039 5.96458 8.04189 6.11551 7.80815L5.80718 7.41738C5.71068 7.29506 5.72095 7.11989 5.83113 7.0097L6.02359 6.81728C6.13377 6.70709 6.30894 6.69682 6.43126 6.79332L6.82201 7.10165C7.05575 6.9507 7.31776 6.84005 7.5982 6.77935L7.65637 6.28587C7.6746 6.13114 7.80575 6.01454 7.96157 6.01454H8.23373C8.38954 6.01454 8.52069 6.13117 8.53892 6.28587L8.59709 6.77935C8.8775 6.84005 9.13954 6.9507 9.37329 7.10165L9.76403 6.79332C9.88635 6.69682 10.0615 6.70709 10.1717 6.81728L10.3642 7.0097C10.4743 7.11989 10.4846 7.29506 10.3881 7.41738L10.0798 7.80815C10.2307 8.04189 10.3414 8.3039 10.4021 8.58431L10.8955 8.64248C11.0503 8.66074 11.1669 8.79189 11.1669 8.94768V9.21987ZM14.9721 11.2114C14.9721 11.3043 14.9026 11.3824 14.8104 11.3933L14.5163 11.428C14.4801 11.5951 14.4142 11.7512 14.3242 11.8906L14.508 12.1234C14.5655 12.1963 14.5593 12.3007 14.4937 12.3664L14.379 12.4811C14.3134 12.5467 14.2089 12.5529 14.1361 12.4954L13.9032 12.3116C13.7639 12.4016 13.6077 12.4675 13.4406 12.5037L13.4059 12.7978C13.3951 12.89 13.3169 12.9595 13.224 12.9595H13.0618C12.969 12.9595 12.8908 12.89 12.8799 12.7978L12.8452 12.5037C12.6781 12.4675 12.522 12.4016 12.3827 12.3116L12.1498 12.4954C12.0769 12.5529 11.9725 12.5467 11.9069 12.4811L11.7922 12.3664C11.7265 12.3007 11.7204 12.1963 11.7779 12.1234L11.9616 11.8906C11.8717 11.7512 11.8057 11.5951 11.7696 11.428L11.4755 11.3933C11.3832 11.3824 11.3137 11.3043 11.3137 11.2114V11.0492C11.3137 10.9564 11.3832 10.8782 11.4755 10.8673L11.7696 10.8327C11.8057 10.6655 11.8717 10.5094 11.9616 10.3701L11.7779 10.1372C11.7204 10.0643 11.7265 9.95989 11.7922 9.89424L11.9069 9.77957C11.9725 9.71392 12.0769 9.70777 12.1498 9.76528L12.3827 9.94905C12.522 9.8591 12.6781 9.79314 12.8452 9.75694L12.8799 9.46284C12.8908 9.37063 12.969 9.30116 13.0618 9.30116H13.224C13.3169 9.30116 13.3951 9.37063 13.4059 9.46284L13.4406 9.75694C13.6077 9.79314 13.7639 9.8591 13.9032 9.94905L14.1361 9.76528C14.2089 9.70777 14.3134 9.71392 14.379 9.77957L14.4937 9.89424C14.5593 9.95989 14.5655 10.0643 14.508 10.1372L14.3242 10.3701C14.4142 10.5094 14.4801 10.6655 14.5163 10.8327L14.8104 10.8673C14.9026 10.8782 14.9721 10.9564 14.9721 11.0492V11.2114ZM14.9721 6.77457C14.9721 6.86742 14.9026 6.94558 14.8104 6.95645L14.5163 6.99112C14.4801 7.15827 14.4142 7.31441 14.3242 7.45369L14.508 7.6866C14.5655 7.7595 14.5593 7.8639 14.4937 7.92955L14.379 8.04422C14.3134 8.10987 14.2089 8.11602 14.1361 8.05851L13.9032 7.87474C13.7639 7.96469 13.6077 8.03065 13.4406 8.06685L13.4059 8.36092C13.3951 8.45313 13.3169 8.5226 13.224 8.5226H13.0618C12.969 8.5226 12.8908 8.45313 12.8799 8.36092L12.8452 8.06685C12.6781 8.03065 12.522 7.96469 12.3827 7.87474L12.1498 8.05851C12.0769 8.11602 11.9725 8.10987 11.9069 8.04422L11.7922 7.92955C11.7265 7.8639 11.7204 7.7595 11.7779 7.6866L11.9616 7.45369C11.8717 7.31441 11.8057 7.15827 11.7696 6.99112L11.4755 6.95645C11.3832 6.94558 11.3137 6.86742 11.3137 6.77457V6.61234C11.3137 6.51952 11.3832 6.44134 11.4755 6.43047L11.7696 6.3958C11.8057 6.2287 11.8717 6.07251 11.9616 5.93322L11.7779 5.70034C11.7204 5.62745 11.7265 5.52305 11.7922 5.45737L11.9069 5.3427C11.9725 5.27705 12.0769 5.2709 12.1498 5.32844L12.3827 5.51218C12.522 5.42223 12.6781 5.35627 12.8452 5.3201L12.8799 5.026C12.8908 4.93378 12.969 4.86429 13.0618 4.86429H13.224C13.3169 4.86429 13.3951 4.93378 13.4059 5.026L13.4406 5.3201C13.6077 5.35627 13.7639 5.42223 13.9032 5.51218L14.1361 5.32844C14.2089 5.2709 14.3134 5.27705 14.379 5.3427L14.4937 5.45737C14.5593 5.52305 14.5655 5.62745 14.508 5.70034L14.3242 5.93322C14.4142 6.07251 14.4801 6.22865 14.5163 6.3958L14.8104 6.43047C14.9026 6.44134 14.9721 6.51952 14.9721 6.61234V6.77457Z" fill="#6A9195"/>
<path d="M8.09602 7.44531C7.19228 7.44531 6.45703 8.18056 6.45703 9.08431C6.45703 9.98805 7.19228 10.7233 8.09602 10.7233C8.99977 10.7233 9.73502 9.98805 9.73502 9.08431C9.73502 8.18056 8.99977 7.44531 8.09602 7.44531ZM8.09602 10.0044C7.58866 10.0044 7.17589 9.59167 7.17589 9.08431C7.17589 8.57694 7.58866 8.16417 8.09602 8.16417C8.60339 8.16417 9.01616 8.57694 9.01616 9.08431C9.01616 9.59167 8.60339 10.0044 8.09602 10.0044Z" fill="#6A9195"/>
</svg>
