<svg width="26" height="28" viewBox="0 0 26 28" fill="none" xmlns="http://www.w3.org/2000/svg">
<path d="M26 12.9996V22.9996C26 24.3257 25.4732 25.5974 24.5355 26.5351C23.5979 27.4728 22.3261 27.9996 21 27.9996H14C13.7348 27.9996 13.4804 27.8942 13.2929 27.7067C13.1054 27.5192 13 27.2648 13 26.9996C13 26.7344 13.1054 26.48 13.2929 26.2925C13.4804 26.1049 13.7348 25.9996 14 25.9996H21C21.7956 25.9996 22.5587 25.6835 23.1213 25.1209C23.6839 24.5583 24 23.7952 24 22.9996H21C20.2044 22.9996 19.4413 22.6835 18.8787 22.1209C18.3161 21.5583 18 20.7952 18 19.9996V14.9996C18 14.2039 18.3161 13.4409 18.8787 12.8783C19.4413 12.3157 20.2044 11.9996 21 11.9996H23.9562C23.767 9.92076 22.9902 7.93869 21.7165 6.28489C20.4428 4.6311 18.7248 3.37385 16.7633 2.66C14.8017 1.94615 12.6775 1.80518 10.6388 2.25355C8.60011 2.70191 6.73107 3.72111 5.25 5.19209C3.40832 7.00947 2.2724 9.42219 2.045 11.9996H5C5.79565 11.9996 6.55871 12.3157 7.12132 12.8783C7.68393 13.4409 8 14.2039 8 14.9996V19.9996C8 20.7952 7.68393 21.5583 7.12132 22.1209C6.55871 22.6835 5.79565 22.9996 5 22.9996H3C2.20435 22.9996 1.44129 22.6835 0.87868 22.1209C0.316071 21.5583 0 20.7952 0 19.9996V12.9996C0.00280367 10.4245 0.769529 7.90805 2.20313 5.76887C3.63673 3.62969 5.67275 1.96392 8.05349 0.982398C10.4342 0.000875235 13.0526 -0.252271 15.5773 0.255002C18.102 0.762274 20.4194 2.00716 22.2362 3.83209C23.4358 5.03747 24.3857 6.4677 25.0316 8.04082C25.6774 9.61395 26.0065 11.2991 26 12.9996Z" fill="white"/>
</svg>
