<svg width="22" height="22" viewBox="0 0 22 22" fill="none" xmlns="http://www.w3.org/2000/svg">
<path fill-rule="evenodd" clip-rule="evenodd" d="M14.6428 0.800781C11.0215 0.800781 8.08594 3.73641 8.08594 7.35768C8.08594 10.979 11.0215 13.9146 14.6428 13.9146C18.2641 13.9146 21.1997 10.979 21.1997 7.35768C21.1997 3.73641 18.2641 0.800781 14.6428 0.800781ZM14.4294 4.65688C14.1449 4.37237 13.6836 4.37237 13.3991 4.65688L11.2135 6.84252C10.929 7.12702 10.929 7.58833 11.2135 7.87283L13.3991 10.0585C13.6836 10.343 14.1449 10.343 14.4294 10.0585C14.7139 9.77396 14.7139 9.31265 14.4294 9.02815L13.4875 8.08622H17.557C17.9594 8.08622 18.2856 7.76005 18.2856 7.35768C18.2856 6.9553 17.9594 6.62913 17.557 6.62913H13.4875L14.4294 5.68721C14.7139 5.40269 14.7139 4.9414 14.4294 4.65688Z" fill="white"/>
<path d="M2.41171 7.19018C3.17111 6.43545 4.39739 6.44599 5.15292 7.19688L6.74129 8.77557C7.48026 9.51008 7.52033 10.6962 6.81575 11.4707L6.12415 12.2311C5.97978 12.3898 5.96476 12.6062 6.06086 12.7633C6.93662 14.1948 7.7429 15.0037 9.20691 15.8894C9.36915 15.9876 9.59274 15.971 9.7539 15.8262L10.5189 15.1388C11.2952 14.4413 12.4811 14.4804 13.218 15.2128L14.7918 16.777C15.5805 17.5609 15.5313 18.8147 14.758 19.5832C13.0228 21.3079 10.2588 21.7954 8.14046 20.3467C5.59744 18.6076 3.61671 16.6065 1.69906 13.8648C0.218408 11.748 0.642595 8.94852 2.41171 7.19018Z" fill="white"/>
</svg>
