<svg width="49" height="48" viewBox="0 0 49 48" fill="none" xmlns="http://www.w3.org/2000/svg">
<path d="M36.4356 11.0107C35.9894 11.0107 35.5402 11.2004 35.5402 11.2004C34.6208 11.7215 32.8366 12.8274 31.8504 12.6629C30.5665 12.4493 27.6101 12.4254 25.1209 12.968C24.9616 12.8624 24.8017 12.7538 24.644 12.6568C24.1627 12.3622 23.6909 12.113 23.2223 11.9252C22.768 11.7441 22.3155 11.6196 21.8423 11.595V11.5925C21.1303 11.5336 20.4402 11.5091 19.8074 11.5091C18.8494 11.5109 18.0327 11.5649 17.4261 11.6638V11.6632L17.4163 11.6638C17.3687 11.6681 17.1312 11.6282 16.8501 11.5251C16.4211 11.3741 15.873 11.1102 15.3673 10.8414C14.8579 10.5713 14.3915 10.3025 14.0545 10.1208C13.8898 10.0318 13.7071 9.99074 13.5199 10.0018C10.6974 10.1539 8.44094 11.255 6.90328 12.72C5.36875 14.1899 4.51016 16.0017 4.5 17.7103C4.5 18.2314 4.58438 18.7438 4.77102 19.225C4.94477 19.6736 5.21445 20.0903 5.56852 20.4389C5.63203 20.52 5.69008 20.5838 5.75234 20.6488C5.90273 20.8016 6.08188 20.9643 6.29305 21.157C6.91961 21.7247 7.81969 22.5379 8.40422 23.272C8.98422 23.9968 9.35797 24.6578 9.66797 25.2469C9.82328 25.5403 9.96164 25.8177 10.1087 26.0822C10.17 26.1921 10.2348 26.2989 10.3026 26.4057L10.1989 26.5088C9.83102 26.8684 9.62539 27.3496 9.61953 27.8645C9.6143 28.3782 9.80891 28.8655 10.1691 29.2337C10.5349 29.6068 11.0241 29.8131 11.5466 29.8131C11.913 29.8131 12.2632 29.7075 12.5682 29.5148C12.3641 29.8216 12.2509 30.1801 12.2466 30.5569C12.2411 31.07 12.4366 31.5567 12.7963 31.9243C13.1614 32.2987 13.6512 32.5036 14.1738 32.5036C14.5849 32.5036 14.9741 32.3699 15.3021 32.1305C14.7049 32.8799 14.7378 33.9723 15.424 34.675C15.7895 35.0482 16.278 35.2532 16.8002 35.2532H16.8009C17.3074 35.2532 17.7866 35.058 18.151 34.7008L18.5073 34.3473C18.3581 34.621 18.2691 34.9243 18.2655 35.2434C18.2602 35.7583 18.4548 36.2444 18.8151 36.612C19.1805 36.9852 19.6697 37.1914 20.1926 37.1914C20.6988 37.1914 21.1776 36.9962 21.5452 36.6371L21.7693 36.41C21.8794 36.5003 21.9804 36.5825 22.0623 36.6476L22.2231 36.7697C22.2769 36.8072 22.3081 36.8342 22.4094 36.8931C22.8169 37.1165 23.2066 37.2135 23.5166 37.281C23.6713 37.3135 23.8035 37.3356 23.9017 37.3491L24.0214 37.3644L24.0584 37.3682L24.0729 37.3693L24.0817 37.3711L24.0913 37.3718L24.1041 37.3724C24.1158 37.3724 24.1103 37.3743 24.172 37.3755L24.245 37.3724C24.9238 37.3227 25.5663 37.0895 26.0939 36.6863C26.3038 36.5254 26.4877 36.331 26.6521 36.1186C26.9768 36.2241 27.321 36.2868 27.6792 36.2868C29.1485 36.2855 30.3842 35.3403 30.8452 34.0282C31.0734 34.0772 31.3066 34.1098 31.5484 34.1098C32.992 34.108 34.2133 33.1971 34.6932 31.9218L34.8129 31.9328C36.675 31.9328 38.1817 30.425 38.1823 28.5641C38.1836 28.0479 38.1118 27.4759 37.9148 26.8818C39.1932 25.7525 41.0651 24.0089 41.4032 23.062C41.567 22.6066 41.9592 21.5792 42.2256 21.2066C42.6282 20.7666 43.6826 19.7748 43.6826 19.7748C46.0417 17.5839 43.1941 11.3827 36.4356 11.0107ZM34.8129 29.9113C34.6294 29.9113 34.457 29.8745 34.2962 29.8082C34.2465 29.7861 34.1937 29.7775 34.1421 29.764L32.709 28.0592C32.393 27.6933 31.8393 27.6522 31.4736 27.9689C31.1066 28.2856 31.066 28.8386 31.3822 29.2057L32.8717 30.9757C32.7594 31.606 32.212 32.0871 31.5485 32.0877C31.2085 32.0871 30.9066 31.965 30.6648 31.7544C30.6187 31.7139 30.5634 31.69 30.5116 31.6581L29.2029 30.098C28.8869 29.731 28.3332 29.6905 27.9671 30.0072C27.6007 30.3245 27.5602 30.8763 27.8766 31.2439L29.0019 32.5935C29.0048 32.6266 28.9984 32.6598 29.004 32.6929C29.019 32.7745 29.026 32.8488 29.026 32.9168C29.0248 33.6613 28.4224 34.2628 27.6792 34.264C27.446 34.264 27.2323 34.2051 27.0421 34.1026L25.3899 32.3976C25.0373 32.0656 24.4825 32.0828 24.1511 32.4339C23.8194 32.7874 23.8363 33.3415 24.1882 33.6736L25.1484 34.7262C25.0799 34.8593 24.993 34.9803 24.8642 35.0803C24.6859 35.2178 24.4407 35.3111 24.1618 35.343C24.0802 35.3307 23.9697 35.3123 23.8377 35.2804C23.677 35.2448 23.5091 35.1846 23.4179 35.138C23.393 35.1196 23.3295 35.0705 23.2378 34.9975C23.1641 34.9391 23.072 34.863 22.972 34.782C23.1151 34.1621 22.9539 33.4846 22.477 32.9985C22.1119 32.6241 21.6221 32.4192 21.0995 32.4192C20.8388 32.4192 20.5864 32.4714 20.352 32.5714L20.3164 32.5414C20.6488 32.1872 20.8391 31.7331 20.8445 31.2445C20.8498 30.7296 20.6545 30.2435 20.2943 29.8759C19.9291 29.5033 19.4393 29.2965 18.9171 29.2965C18.5084 29.2965 18.1211 29.429 17.7945 29.666C18.0588 29.3321 18.2122 28.9283 18.2168 28.4962C18.2227 27.9818 18.0272 27.4958 17.6676 27.1282C17.302 26.7538 16.8126 26.5482 16.2898 26.5482C15.7834 26.5482 15.3047 26.7434 14.9405 27.1006L14.6155 27.4233C15.0163 26.6973 14.9236 25.7675 14.3151 25.1458C13.9493 24.7721 13.4598 24.5664 12.937 24.5664C12.5202 24.5664 12.1269 24.7046 11.7954 24.9507C11.445 24.2958 10.9451 23.2082 9.98305 22.0084C9.41602 21.3008 8.72398 20.6422 8.14828 20.1119C7.86109 19.8475 7.60273 19.6167 7.41336 19.4411C7.31914 19.3533 7.24211 19.2791 7.19336 19.2312L7.14672 19.1809L7.14609 19.1803L7.14391 19.1821L7.01688 19.0335C6.85891 18.8863 6.74125 18.7114 6.65633 18.4936C6.57164 18.2757 6.52227 18.0129 6.52227 17.7104C6.51273 16.7161 7.09547 15.3193 8.29719 14.1857C9.44891 13.0926 11.1394 12.2298 13.3617 12.0481C13.7736 12.2764 14.363 12.6115 14.9884 12.9189C15.3766 13.1098 15.7771 13.2903 16.1755 13.4314C16.5774 13.5701 16.965 13.6818 17.4164 13.6868C17.5278 13.6868 17.6324 13.6775 17.7285 13.6635L17.7435 13.661C18.1716 13.5879 18.9292 13.5309 19.8075 13.5321C20.3884 13.5309 21.0255 13.5542 21.6756 13.6082L21.722 13.6106C21.8816 13.615 22.1483 13.672 22.472 13.8027L22.5454 13.8364C19.8173 15.0688 15.9509 17.4384 14.6804 17.8625C13.2295 18.3462 13.108 20.2819 16.3724 20.6439C19.6378 21.0073 22.5398 18.95 23.2649 18.5892C23.7857 18.3284 27.0934 18.6468 28.9257 18.847C29.7337 19.6448 30.442 20.385 30.958 20.9446L34.9823 25.8644L35.0002 25.8846C35.5163 26.4818 35.7962 26.9667 35.9539 27.3821C36.111 27.7976 36.1589 28.1561 36.1602 28.5643C36.1588 29.308 35.5573 29.9101 34.8129 29.9113Z" fill="#6A9195"/>
</svg>
