<svg width="49" height="48" viewBox="0 0 49 48" fill="none" xmlns="http://www.w3.org/2000/svg">
<path d="M15.4057 5.42532C16.1552 3.52488 18.8448 3.5249 19.5943 5.42534L21.917 11.3146C22.1458 11.8949 22.6052 12.3541 23.1854 12.583L29.0746 14.9057C30.9752 15.6552 30.9752 18.3448 29.0746 19.0943L23.1854 21.417C22.6052 21.6458 22.1458 22.1052 21.917 22.6854L19.5943 28.5746C18.8448 30.4752 16.1552 30.4752 15.4057 28.5746L13.083 22.6854C12.8541 22.1052 12.3949 21.6458 11.8146 21.417L5.92532 19.0943C4.02488 18.3448 4.0249 15.6552 5.92534 14.9057L11.8146 12.583C12.3949 12.3541 12.8541 11.8949 13.083 11.3146L15.4057 5.42532Z" fill="#6A9195"/>
<path d="M34.3489 26.7831C34.7609 25.739 36.239 25.739 36.651 26.7831L38.4522 31.3505C38.578 31.6695 38.8303 31.9219 39.1493 32.0477L43.7168 33.8489C44.761 34.2609 44.761 35.739 43.7168 36.151L39.1493 37.9522C38.8303 38.078 38.578 38.3303 38.4522 38.6493L36.651 43.2168C36.239 44.261 34.7609 44.261 34.3489 43.2168L32.5477 38.6493C32.4219 38.3303 32.1695 38.078 31.8505 37.9522L27.2831 36.151C26.239 35.739 26.239 34.2609 27.2831 33.8489L31.8505 32.0477C32.1695 31.9219 32.4219 31.6695 32.5477 31.3505L34.3489 26.7831Z" fill="#6A9195"/>
</svg>
