<svg width="20" height="20" viewBox="0 0 20 20" fill="none" xmlns="http://www.w3.org/2000/svg">
<path d="M19.7028 3.55758L17.2495 2.73925L16.4312 0.28511C16.4083 0.216247 16.3677 0.154564 16.3137 0.106167C16.2596 0.057771 16.1938 0.0243402 16.1228 0.00918538C16.0518 -0.00596947 15.9781 -0.0023228 15.909 0.0197643C15.8399 0.0418514 15.7777 0.0816129 15.7287 0.135112L13.4304 2.63509C13.36 2.71201 13.3211 2.81251 13.3212 2.91675V5.78339L12.3212 6.77838C10.8933 5.5754 9.06775 4.94883 7.20207 5.02139C5.33639 5.09394 3.565 5.8604 2.23485 7.17064C0.904692 8.48088 0.111603 10.2405 0.0109124 12.1049C-0.0897786 13.9693 0.509183 15.8041 1.69048 17.2499L0.583829 18.6499C0.450107 18.8236 0.390192 19.043 0.417065 19.2605C0.443938 19.478 0.555434 19.6762 0.7274 19.8121C0.899366 19.948 1.11795 20.0107 1.33581 19.9866C1.55367 19.9625 1.75325 19.8535 1.89132 19.6832L2.89131 18.4158C4.23262 19.464 5.8917 20.0226 7.59385 19.9993C9.296 19.976 10.9391 19.372 12.2512 18.2874L13.5295 19.7207C13.6781 19.8832 13.8843 19.9812 14.1041 19.9938C14.3239 20.0064 14.54 19.9327 14.7062 19.7882C14.8711 19.6413 14.9709 19.4349 14.9837 19.2145C14.9965 18.994 14.9213 18.7775 14.7745 18.6124L13.4129 17.0833C14.3523 15.8769 14.8986 14.4112 14.9779 12.8843C15.0571 11.3574 14.6656 9.843 13.8562 8.54586C13.8389 8.5187 13.8157 8.49579 13.7883 8.47885C13.7609 8.4619 13.73 8.45135 13.698 8.44799C13.6659 8.44463 13.6335 8.44853 13.6032 8.45942C13.5729 8.4703 13.5454 8.48789 13.5229 8.51086L12.1545 9.88251C12.124 9.91289 12.104 9.9523 12.0975 9.99492C12.0911 10.0375 12.0985 10.0811 12.1187 10.1192C12.7119 11.2663 12.86 12.5923 12.5346 13.842C12.2092 15.0918 11.4332 16.1771 10.356 16.8893C9.27872 17.6015 7.97618 17.8904 6.69883 17.7003C5.42148 17.5102 4.2595 16.8545 3.43634 15.8595C2.61317 14.8644 2.18692 13.6002 2.23957 12.3098C2.29221 11.0195 2.82003 9.79413 3.72152 8.86943C4.62301 7.94473 5.83454 7.38594 7.12313 7.30052C8.41172 7.2151 9.6864 7.60908 10.7021 8.40669L9.80624 9.30252C9.35405 8.9695 8.83554 8.73761 8.28586 8.62259C7.73619 8.50756 7.16821 8.51209 6.62043 8.63586C5.93279 8.79113 5.29908 9.1272 4.78477 9.60933C4.27046 10.0915 3.89421 10.7022 3.6949 11.3784C3.49558 12.0546 3.48043 12.7717 3.65101 13.4557C3.82158 14.1397 4.1717 14.7658 4.66518 15.2692C5.15867 15.7726 5.77762 16.1352 6.45809 16.3194C7.13857 16.5035 7.85588 16.5027 8.53591 16.3169C9.21594 16.1311 9.83404 15.7671 10.3263 15.2625C10.8186 14.7579 11.1673 14.1311 11.3362 13.4466C11.5186 12.7103 11.4836 11.9369 11.2354 11.22C11.2228 11.1872 11.2021 11.1581 11.1753 11.1354C11.1485 11.1126 11.1164 11.097 11.082 11.0898C11.0476 11.0827 11.012 11.0843 10.9783 11.0945C10.9447 11.1048 10.9142 11.1233 10.8896 11.1483L9.08958 12.9475C8.99653 13.2709 8.80728 13.5584 8.54697 13.7717C8.28665 13.985 7.9676 14.1141 7.63218 14.1417C7.29677 14.1694 6.96088 14.0943 6.66913 13.9266C6.37739 13.7588 6.1436 13.5062 5.99884 13.2024C5.85407 12.8985 5.80517 12.5579 5.85863 12.2256C5.9121 11.8933 6.0654 11.5852 6.29817 11.3421C6.53094 11.099 6.83216 10.9325 7.16182 10.8647C7.49147 10.7969 7.83395 10.831 8.14375 10.9625L7.1546 11.95C7.09652 12.008 7.05045 12.0769 7.01901 12.1528C6.98758 12.2287 6.9714 12.31 6.9714 12.3921C6.9714 12.4742 6.98758 12.5555 7.01901 12.6313C7.05045 12.7072 7.09652 12.7761 7.1546 12.8341C7.27327 12.9487 7.43176 13.0127 7.59667 13.0127C7.76159 13.0127 7.92008 12.9487 8.03875 12.8341L14.2045 6.66671H17.0712C17.1758 6.66682 17.2766 6.62755 17.3537 6.55671L19.8536 4.26007C19.9071 4.21102 19.9469 4.14885 19.9689 4.07971C19.991 4.01058 19.9946 3.93688 19.9795 3.86591C19.9642 3.79485 19.9307 3.72901 19.8822 3.67492C19.8336 3.62084 19.7718 3.58038 19.7028 3.55758Z" fill="#6A9195"/>
</svg>
