<svg width="21" height="11" viewBox="0 0 21 11" fill="none" xmlns="http://www.w3.org/2000/svg">
<path d="M14.9653 0.223067C14.8949 0.293172 14.8391 0.376578 14.801 0.468474C14.7629 0.56037 14.7433 0.658937 14.7433 0.75849C14.7433 0.858042 14.7629 0.95661 14.801 1.04851C14.8391 1.1404 14.8949 1.22381 14.9653 1.29391L18.4177 4.76285H0.750516C0.551467 4.76285 0.36057 4.8423 0.219821 4.98373C0.0790719 5.12515 0 5.31697 0 5.51697C0 5.71697 0.0790719 5.90879 0.219821 6.05021C0.36057 6.19164 0.551467 6.27109 0.750516 6.27109H18.4026L14.9653 9.7174C14.8255 9.8587 14.747 10.0498 14.747 10.2491C14.747 10.4483 14.8255 10.6394 14.9653 10.7807C15.1059 10.9212 15.2961 11 15.4944 11C15.6927 11 15.8829 10.9212 16.0235 10.7807L20.7968 5.98452C20.861 5.92259 20.9122 5.84824 20.9471 5.76595C20.982 5.68365 21 5.59512 21 5.50566C21 5.4162 20.982 5.32766 20.9471 5.24537C20.9122 5.16308 20.861 5.08873 20.7968 5.02679L16.031 0.223067C15.9612 0.152384 15.8782 0.0962825 15.7868 0.057997C15.6953 0.0197115 15.5972 0 15.4981 0C15.3991 0 15.301 0.0197115 15.2095 0.057997C15.1181 0.0962825 15.0351 0.152384 14.9653 0.223067Z" fill="#6A9195"/>
</svg>
