<svg width="24" height="24" viewBox="0 0 24 24" fill="none" xmlns="http://www.w3.org/2000/svg">
<path d="M7.39497 22.0009H4.72665C4.33598 22.0009 4.01953 21.6805 4.01953 21.2938V15.8321C4.01953 15.4414 4.33988 15.125 4.72665 15.125H7.39497C7.78564 15.125 8.10209 15.4454 8.10209 15.8321V21.2938C8.10599 21.6844 7.78564 22.0009 7.39497 22.0009Z" fill="#6A9195"/>
<path d="M13.2192 22.0012H10.8048C10.3477 22.0012 9.96875 21.6262 9.96875 21.1652V13.2853C9.96875 12.8282 10.3438 12.4492 10.8048 12.4492H13.2192C13.6763 12.4492 14.0552 12.8243 14.0552 13.2853V21.1652C14.0552 21.6262 13.6802 22.0012 13.2192 22.0012Z" fill="#6A9195"/>
<path d="M19.0629 22.0016H16.8634C16.3438 22.0016 15.9219 21.5757 15.9219 21.06V10.7657C15.9219 10.2461 16.3477 9.82422 16.8634 9.82422H19.0629C19.5825 9.82422 20.0044 10.2501 20.0044 10.7657V21.06C20.0044 21.5796 19.5825 22.0016 19.0629 22.0016Z" fill="#6A9195"/>
<path d="M19.4017 2.00133C18.5422 2.03649 17.8742 2.76314 17.9093 3.62654L13.9401 7.52938L10.5568 4.56806L4.36463 10.7798C3.56765 10.8814 2.96992 11.569 3.00117 12.3855C3.03633 13.245 3.7669 13.913 4.62638 13.8779C5.48587 13.8427 6.15392 13.1121 6.11876 12.2526C6.11485 12.1823 6.09923 12.1159 6.08751 12.0456L10.7483 7.57236L14.0182 10.436L19.4369 5.11501C19.4681 5.11501 19.4994 5.12282 19.5306 5.11892C20.3901 5.08376 21.0582 4.35319 21.023 3.49371C20.9879 2.63422 20.2612 1.96617 19.4017 2.00133Z" fill="#6A9195"/>
</svg>
