<svg width="24" height="24" viewBox="0 0 24 24" fill="none" xmlns="http://www.w3.org/2000/svg">
<path fill-rule="evenodd" clip-rule="evenodd" d="M21.9781 2.71877C21.9775 2.52502 21.89 2.35 21.7569 2.23125C21.6362 2.1 21.4663 2.00626 21.2731 2.00626L15.7919 2C15.4294 2 15.1356 2.29379 15.1356 2.66254C15.1363 3.02504 15.56 3.43748 15.7412 3.61873L17.1275 5.01247L13.2425 8.875L15.1175 10.75L18.9763 6.87503L20.3625 8.26877C20.6619 8.57502 20.9662 8.89377 21.3288 8.89377C21.6925 8.89377 21.9856 8.59998 21.985 8.23123L21.9781 2.71877ZM8.86751 13.25L4.95876 17.2375L3.59563 15.875C3.30126 15.5812 3.00126 15.2625 2.64501 15.2625C2.28813 15.2625 1.99938 15.55 2 15.9062L2.00689 21.3C2.00689 21.4875 2.09313 21.6563 2.22438 21.775C2.34313 21.9063 2.51 21.9937 2.7 21.9937L8.09001 22C8.44626 22 8.735 21.7125 8.735 21.3562C8.73438 21 8.31813 20.5937 8.13938 20.4187L6.77625 19.0563L10.7425 15.125L8.86751 13.25Z" fill="#6A9195"/>
</svg>
