<svg width="22" height="24" viewBox="0 0 22 24" fill="none" xmlns="http://www.w3.org/2000/svg">
<path d="M11.1535 10.5162L7.0882 4.57812H4.91992L9.95581 11.9333L10.5897 12.8586L14.9001 19.1597H17.0684L11.7847 11.4415L11.1535 10.5162Z" fill="white"/>
<path d="M20.1598 0.363281H1.84021C0.823853 0.363281 0 1.2233 0 2.28427V21.4081C0 22.469 0.823853 23.3291 1.84021 23.3291H20.1598C21.1761 23.3291 22 22.469 22 21.4081V2.28427C22 1.2233 21.1761 0.363281 20.1598 0.363281ZM14.2354 20.1974L9.8728 13.7116L4.41144 20.1974H3L9.24689 12.7808L3 3.49498H7.76465L11.8948 9.63515L17.0696 3.49498H18.481L12.524 10.5681L19 20.1974H14.2354Z" fill="white"/>
</svg>
