
<svg width="48" height="48" viewBox="0 0 48 48" fill="none" xmlns="http://www.w3.org/2000/svg">
<path d="M34 12.3833C34 13.0851 34.7024 13.7868 35.6842 13.7868C37.0871 13.7868 37.5081 13.2254 37.5081 12.3833C37.5081 12.243 37.5081 12.243 37.5081 12.1033C37.3684 11.6822 36.9467 11.4015 36.5269 11.1208C36.3859 11.1208 36.1059 10.9805 35.8258 10.9805C34.8421 10.9811 34 11.5419 34 12.3833Z" fill="#6A9195"/>
<path d="M36.9439 7.75478C36.8023 6.91268 36.2415 6.21094 35.5404 6.21094C34.838 6.21094 34.417 6.91268 34.5586 7.75478C34.7002 8.59687 35.2597 9.29862 35.9614 9.29862C36.5228 9.29862 37.0836 8.59687 36.9439 7.75478Z" fill="#6A9195"/>
<path d="M30.6312 18.2799L33.0172 15.8939C34.42 17.0167 36.1061 17.7185 37.93 17.7185C42.2802 17.7185 45.7896 14.2091 45.7896 9.85892C45.7883 5.5081 42.2802 2 37.9294 2C33.5798 2 30.0698 5.50873 30.0698 9.85955C30.0698 11.8244 30.771 13.508 31.8944 14.7718L29.5078 17.1583C29.9289 17.5787 30.3499 18.0004 30.6312 18.2799ZM39.1925 7.33264H40.7357V5.78942H41.2971V7.33326H42.8416V7.89466H41.2971V9.43913H40.7357V7.89403H39.1925V7.33264ZM35.6838 9.99927C35.6838 9.85892 35.6838 9.71857 35.8254 9.57822C35.6838 9.57822 35.6838 9.57822 35.5453 9.57822C34.4219 9.57822 33.5798 8.73613 33.5798 7.75368C33.5798 6.77124 34.702 5.92915 35.8254 5.92915H38.3504L37.789 6.35019H36.9469C37.5083 6.49117 37.789 7.19291 37.789 7.89403C37.789 8.45543 37.5083 8.87648 37.0867 9.29752C36.6656 9.57822 36.5253 9.71857 36.5253 9.99927C36.5253 10.28 36.9469 10.701 37.227 10.8414C37.9281 11.2624 38.0691 11.8238 38.0691 12.5256C38.0691 13.5074 37.227 14.3501 35.5434 14.3501C34.1406 14.3501 32.8768 13.7887 32.8768 12.8062C32.8768 11.8238 33.999 10.9817 35.4025 10.9817C35.5434 10.9817 35.6825 10.9817 35.8235 10.9817C35.8235 10.5613 35.6838 10.2806 35.6838 9.99927Z" fill="#6A9195"/>
<path d="M37.929 30.2808C36.1051 30.2808 34.2806 30.9819 33.0162 32.1053L30.6309 29.7188C30.3496 30.1398 29.9285 30.4192 29.6484 30.6999L32.035 33.0865C30.9122 34.4887 30.2105 36.1748 30.2105 37.9993C30.2105 42.3495 33.7204 45.8589 38.0706 45.8589C42.4202 45.8589 45.9308 42.3495 45.9308 37.9993C45.7879 33.6485 42.2799 30.2808 37.929 30.2808ZM35.6834 41.649H34.1396V36.7362H35.6834V41.649ZM34.9817 36.0357C34.4203 36.0357 33.9999 35.614 33.9999 35.1924C33.9999 34.7713 34.4209 34.3503 34.9817 34.3503C35.5425 34.3503 35.9635 34.7713 35.9635 35.1924C35.8232 35.7544 35.5431 36.0357 34.9817 36.0357ZM41.9992 41.649H40.1746V39.1234C40.1746 38.4223 39.8945 38.0006 39.3319 38.0006C38.9108 38.0006 38.6308 38.2813 38.4898 38.562C38.4898 38.7042 38.4898 38.8433 38.4898 38.9837V41.6509H36.8056C36.8056 41.6509 36.8056 37.1598 36.8056 36.7381H38.4898V37.4398C38.6308 37.1598 39.1922 36.5977 40.0343 36.5977C41.1564 36.5977 41.9992 37.2988 41.9992 38.8433V41.649Z" fill="#6A9195"/>
<path d="M17.228 29.7188L14.8421 32.1053C13.4386 30.9819 11.7544 30.2808 9.92986 30.2808C5.57904 30.2808 2.07031 33.7908 2.07031 38.1397C2.07031 42.4905 5.57904 45.9999 9.92986 45.9999C14.2801 45.9999 17.7894 42.4905 17.7894 38.1397C17.7894 36.3152 17.0877 34.4912 15.9649 33.2275L18.3508 30.8409C17.9298 30.4192 17.5087 29.9976 17.228 29.7188ZM13.2989 36.8759C13.2989 39.2619 11.4743 41.9279 8.2463 41.9279C7.26448 41.9279 6.28141 41.6472 5.57967 41.0845C5.72001 41.0845 5.86036 41.0845 6.00071 41.0845C6.84281 41.0845 7.54455 40.8044 8.2463 40.3834C7.54455 40.3834 6.84281 39.822 6.56211 39.1196C6.70246 39.1196 6.84218 39.1196 6.84218 39.1196C6.98316 39.1196 7.12288 39.1196 7.26385 39.1196C6.42113 38.978 5.86036 38.2775 5.86036 37.4354C6.14106 37.5764 6.42176 37.7155 6.70246 37.7155C6.28141 37.4354 5.86036 36.8734 5.86036 36.312C5.86036 36.0326 6.00071 35.7506 6.14106 35.4699C6.98316 36.5933 8.24567 37.2945 9.78951 37.2945C9.78951 37.1529 9.78951 37.0144 9.78951 36.8734C9.78951 35.891 10.6322 35.0489 11.614 35.0489C12.1754 35.0489 12.5965 35.329 12.8778 35.6103C13.2989 35.4693 13.7199 35.3296 14.0006 35.1892C13.8596 35.6103 13.5789 35.8903 13.1579 36.1704C13.5789 36.1704 13.8596 36.0294 14.1403 35.8903C13.8596 36.3114 13.5789 36.5915 13.2982 36.7324C13.2989 36.7349 13.2989 36.7349 13.2989 36.8759Z" fill="#6A9195"/>
<path d="M9.92986 17.7187C11.7544 17.7187 13.5783 17.017 14.8421 15.8942L17.228 18.2801C17.5087 17.8591 17.9298 17.579 18.2105 17.2983L15.8239 14.9124C16.9467 13.5089 17.6484 11.8247 17.6484 10.0002C17.6484 5.64935 14.1397 2.14062 9.78888 2.14062C5.43869 2.14062 2.07031 5.64935 2.07031 10.0002C2.07031 14.2094 5.57904 17.7187 9.92986 17.7187ZM8.10532 8.59543H8.94742V7.75333C8.94742 6.63054 9.36846 5.9288 10.772 5.9288H11.8947V7.33229H11.193C10.6316 7.33229 10.6316 7.47264 10.6316 7.89368V8.59543H11.8947L11.7544 9.99892H10.49V13.9287H8.80581V9.99892H7.96435V8.59543H8.10532Z" fill="#6A9195"/>
</svg>
