<svg width="49" height="48" viewBox="0 0 49 48" fill="none" xmlns="http://www.w3.org/2000/svg">
<g clip-path="url(#clip0_307_6975)">
<path d="M16.6741 38.0352C15.9663 38.0352 15.3906 38.611 15.3906 39.3185C15.3906 40.0262 15.9664 40.6018 16.6741 40.6018C17.3817 40.6018 17.9574 40.026 17.9574 39.3185C17.9574 38.6108 17.3817 38.0352 16.6741 38.0352Z" fill="#6A9195"/>
<path d="M40.8632 2.38281H35.0471C35.0471 4.63478 35.0471 5.26534 35.0471 6.27184C35.0471 8.47422 33.2553 10.266 31.053 10.266H17.9494C15.747 10.266 13.9552 8.47413 13.9552 6.27184C13.9552 5.26478 13.9552 4.63591 13.9552 2.38281H8.13919C7.26844 2.38281 6.5625 3.08875 6.5625 3.9595V46.4237C6.5625 47.2944 7.26844 48.0003 8.13919 48.0003H40.8632C41.7339 48.0003 42.4399 47.2944 42.4399 46.4237V3.95941C42.4399 3.08856 41.7339 2.38281 40.8632 2.38281ZM12.9166 13.8686C12.3008 13.2528 12.3008 12.2546 12.9166 11.6389C13.5322 11.0232 14.5306 11.0232 15.1463 11.6389L16.5265 13.0192L17.9068 11.6389C18.5225 11.0232 19.5208 11.0232 20.1365 11.6389C20.7521 12.2547 20.7522 13.2529 20.1365 13.8686L18.7562 15.2489L20.1365 16.6292C20.7522 17.2449 20.7522 18.2432 20.1365 18.8588C19.5208 19.4746 18.5225 19.4747 17.9068 18.8588L16.5265 17.4785L15.1463 18.8588C14.5306 19.4746 13.5322 19.4747 12.9166 18.8588C12.3008 18.2431 12.3008 17.2448 12.9166 16.6292L14.2969 15.2489L12.9166 13.8686ZM12.9166 25.9031C12.3008 25.2873 12.3008 24.2891 12.9166 23.6734C13.5322 23.0577 14.5306 23.0577 15.1463 23.6734L16.5265 25.0537L17.9068 23.6734C18.5225 23.0577 19.5208 23.0577 20.1365 23.6734C20.7521 24.2892 20.7522 25.2874 20.1365 25.9031L18.7562 27.2834L20.1365 28.6637C20.7522 29.2794 20.7522 30.2777 20.1365 30.8933C19.5208 31.5091 18.5225 31.5092 17.9068 30.8933L16.5265 29.513L15.1463 30.8933C14.5306 31.5091 13.5322 31.5092 12.9166 30.8933C12.3008 30.2776 12.3008 29.2793 12.9166 28.6637L14.2969 27.2834L12.9166 25.9031ZM16.6751 43.7545C14.2287 43.7545 12.2385 41.7642 12.2385 39.3179C12.2385 36.8716 14.2288 34.8813 16.6751 34.8813C19.1214 34.8813 21.1117 36.8716 21.1117 39.3179C21.1117 41.7641 19.1214 43.7545 16.6751 43.7545ZM36.0516 40.8945H25.4466C24.5758 40.8945 23.8699 40.1885 23.8699 39.3178C23.8699 38.447 24.5757 37.7411 25.4466 37.7411H36.0516C36.9223 37.7411 37.6283 38.447 37.6283 39.3178C37.6283 40.1885 36.9223 40.8945 36.0516 40.8945ZM36.0516 28.86H25.4466C24.5758 28.86 23.8699 28.154 23.8699 27.2833C23.8699 26.4125 24.5757 25.7066 25.4466 25.7066H36.0516C36.9223 25.7066 37.6283 26.4125 37.6283 27.2833C37.6283 28.154 36.9223 28.86 36.0516 28.86ZM36.0516 16.8256H25.4466C24.5758 16.8256 23.8699 16.1196 23.8699 15.2489C23.8699 14.3781 24.5757 13.6722 25.4466 13.6722H36.0516C36.9223 13.6722 37.6283 14.3781 37.6283 15.2489C37.6283 16.1196 36.9223 16.8256 36.0516 16.8256Z" fill="#6A9195"/>
<path d="M31.0499 0H17.9463C17.482 0 17.1055 0.3765 17.1055 0.840844V6.2715C17.1055 6.73584 17.482 7.11234 17.9463 7.11234H31.05C31.5144 7.11234 31.8909 6.73584 31.8909 6.2715V0.840844C31.8909 0.3765 31.5144 0 31.0499 0Z" fill="#6A9195"/>
</g>
<defs>
<clipPath id="clip0_307_6975">
<rect width="48" height="48" fill="white" transform="translate(0.5)"/>
</clipPath>
</defs>
</svg>
