<svg width="32" height="32" viewBox="0 0 32 32" fill="none" xmlns="http://www.w3.org/2000/svg">
<g clip-path="url(#clip0_307_6168)">
<path d="M16 6C10.4774 6 6 10.4774 6 16C6 21.5226 10.4774 26 16 26C21.5226 26 26 21.5226 26 16C26 10.4774 21.5226 6 16 6ZM20.6154 17.5385H16C15.796 17.5385 15.6003 17.4574 15.4561 17.3132C15.3118 17.1689 15.2308 16.9732 15.2308 16.7692V9.84615C15.2308 9.64214 15.3118 9.44648 15.4561 9.30223C15.6003 9.15797 15.796 9.07692 16 9.07692C16.204 9.07692 16.3997 9.15797 16.5439 9.30223C16.6882 9.44648 16.7692 9.64214 16.7692 9.84615V16H20.6154C20.8194 16 21.0151 16.081 21.1593 16.2253C21.3036 16.3696 21.3846 16.5652 21.3846 16.7692C21.3846 16.9732 21.3036 17.1689 21.1593 17.3132C21.0151 17.4574 20.8194 17.5385 20.6154 17.5385Z" fill="white"/>
</g>
<defs>
<clipPath id="clip0_307_6168">
<rect width="32" height="32" fill="white"/>
</clipPath>
</defs>
</svg>
