<svg width="49" height="48" viewBox="0 0 49 48" fill="none" xmlns="http://www.w3.org/2000/svg">
<path fill-rule="evenodd" clip-rule="evenodd" d="M40.0556 19.9644C40.0556 10.9778 33.0778 4 24.5 4C15.9222 4 8.94444 10.9778 8.94444 19.5556C6.36 20.8822 4.5 23.3244 4.5 26.2222V30.6667C4.5 32.4348 5.20238 34.1305 6.45262 35.3807C7.70286 36.631 9.39856 37.3333 11.1667 37.3333H13.3889C13.9783 37.3333 14.5435 37.0992 14.9602 36.6825C15.377 36.2657 15.6111 35.7005 15.6111 35.1111V21.7778C15.6111 21.1884 15.377 20.6232 14.9602 20.2064C14.5435 19.7897 13.9783 19.5556 13.3889 19.5556C13.3889 16.6087 14.5595 13.7826 16.6433 11.6988C18.727 9.61508 21.5532 8.44444 24.5 8.44444C27.4469 8.44444 30.273 9.61508 32.3567 11.6988C34.4405 13.7826 35.6111 16.6087 35.6111 19.5556C35.0217 19.5556 34.4565 19.7897 34.0398 20.2064C33.623 20.6232 33.3889 21.1884 33.3889 21.7778V35.1111C33.3889 35.7005 33.623 36.2657 34.0398 36.6825C34.4565 37.0992 35.0217 37.3333 35.6111 37.3333V39.5556H29.8511C29.3933 38.2644 28.1711 37.3333 26.7222 37.3333H22.2778C21.3937 37.3333 20.5459 37.6845 19.9208 38.3096C19.2956 38.9348 18.9444 39.7826 18.9444 40.6667C18.9444 41.5507 19.2956 42.3986 19.9208 43.0237C20.5459 43.6488 21.3937 44 22.2778 44H35.6111C36.7899 44 37.9203 43.5317 38.7538 42.6983C39.5873 41.8648 40.0556 40.7343 40.0556 39.5556V36.9267C41.3527 36.4708 42.4766 35.624 43.2726 34.503C44.0685 33.3819 44.4974 32.0416 44.5 30.6667V26.2222C44.4975 24.8475 44.0688 23.5075 43.2728 22.3867C42.4767 21.2659 41.3527 20.4196 40.0556 19.9644L28.9401 44L40.0556 19.9644Z" fill="#6A9195"/>
</svg>
