<svg width="12" height="12" viewBox="0 0 12 12" fill="none" xmlns="http://www.w3.org/2000/svg">
<path d="M2.41667 5.19667C3.37667 7.08333 4.92 8.62667 6.81 9.58667L8.27667 8.11667C8.46 7.93333 8.72333 7.88 8.95333 7.95333C9.7 8.2 10.5033 8.33333 11.3333 8.33333C11.7033 8.33333 12 8.63 12 9V11.3333C12 11.7033 11.7033 12 11.3333 12C5.07333 12 0 6.92667 0 0.666667C0 0.296667 0.3 0 0.666667 0H3C3.37 0 3.66667 0.296667 3.66667 0.666667C3.66667 1.49667 3.8 2.3 4.04667 3.04667C4.12 3.27667 4.06667 3.54 3.88333 3.72333L2.41667 5.19667Z" fill="white"/>
</svg>
