<svg width="49" height="48" viewBox="0 0 49 48" fill="none" xmlns="http://www.w3.org/2000/svg">
<path d="M32.3054 35.8675V43.2735L35.8537 44.7504V33.9267C34.7391 34.6911 33.5503 35.3413 32.3054 35.8675ZM13.1397 33.9267V44.6765L16.688 43.1996V35.8675C15.4431 35.3413 14.2543 34.6911 13.1397 33.9267ZM24.4967 37.443C22.8211 37.4439 21.152 37.2354 19.5282 36.8223V48L24.4967 45.9322L29.4651 47.9999V36.8223C27.8413 37.2354 26.1722 37.4439 24.4967 37.443ZM24.4967 0C14.9567 0 7.19531 7.76136 7.19531 17.3014C7.19531 26.8415 14.9567 34.6028 24.4967 34.6028C34.0366 34.6028 41.7981 26.8414 41.7981 17.3013C41.7981 7.76127 34.0367 0 24.4967 0ZM24.4967 30.9468C16.9336 30.9468 10.7805 24.7937 10.7805 17.2307C10.7805 9.66748 16.9336 3.5144 24.4967 3.5144C32.0597 3.5144 38.2128 9.66748 38.2128 17.2307C38.2128 24.7938 32.0598 30.9468 24.4967 30.9468ZM24.4967 6.35455C18.4997 6.35455 13.6206 11.2335 13.6206 17.2307C13.6206 23.2278 18.4997 28.1066 24.4967 28.1066C30.4936 28.1066 35.3727 23.2276 35.3727 17.2306C35.3727 11.2335 30.4937 6.35455 24.4967 6.35455ZM28.9667 23.5781L24.4967 21.2281L20.0267 23.5781L20.8804 18.6007L17.264 15.0757L22.2618 14.3494L24.4967 9.82076L26.7317 14.3494L31.7294 15.0757L28.1131 18.6007L28.9667 23.5781Z" fill="#6A9195"/>
</svg>
