<svg width="11" height="22" viewBox="0 0 11 22" fill="none" xmlns="http://www.w3.org/2000/svg">
<path d="M0.249192 6.49813C0.318915 6.56842 0.401865 6.62422 0.49326 6.66229C0.584654 6.70037 0.682684 6.71997 0.781693 6.71997C0.880701 6.71997 0.978731 6.70037 1.07013 6.66229C1.16152 6.62422 1.24447 6.56842 1.31419 6.49813L4.76419 3.04812L4.76419 20.7031C4.76419 20.902 4.84321 21.0928 4.98386 21.2335C5.12451 21.3741 5.31528 21.4531 5.51419 21.4531C5.71311 21.4531 5.90387 21.3741 6.04452 21.2335C6.18517 21.0928 6.26419 20.902 6.26419 20.7031L6.26419 3.06313L9.69169 6.49813C9.83221 6.63781 10.0223 6.71622 10.2204 6.71622C10.4186 6.71622 10.6087 6.63781 10.7492 6.49813C10.8889 6.3576 10.9673 6.16751 10.9673 5.96937C10.9673 5.77124 10.8889 5.58115 10.7492 5.44062L5.97919 0.670624C5.91759 0.606422 5.84365 0.55534 5.76181 0.520443C5.67997 0.485544 5.59191 0.467556 5.50294 0.467556C5.41397 0.467556 5.32592 0.485544 5.24407 0.520443C5.16223 0.55534 5.08829 0.606422 5.02669 0.670624L0.249192 5.43312C0.178896 5.50285 0.123101 5.5858 0.0850241 5.67719C0.0469476 5.76859 0.0273438 5.86662 0.0273438 5.96563C0.0273438 6.06463 0.0469476 6.16266 0.0850241 6.25406C0.123101 6.34545 0.178896 6.4284 0.249192 6.49813Z" fill="#4B5563"/>
</svg>
