<svg width="24" height="25" viewBox="0 0 24 25" fill="none" xmlns="http://www.w3.org/2000/svg">
<path d="M24 3.00003V18C23.9992 18.1424 23.968 18.2829 23.9085 18.4123C23.849 18.5416 23.7626 18.6568 23.655 18.75C21.745 20.4038 19.9188 21 18.1775 21C15.8137 21 13.6062 19.9075 11.5525 18.8938C8.23375 17.25 5.34875 15.8263 2 18.4713V24C2 24.2652 1.89464 24.5196 1.70711 24.7071C1.51957 24.8947 1.26522 25 1 25C0.734784 25 0.48043 24.8947 0.292893 24.7071C0.105357 24.5196 0 24.2652 0 24V3.00003C0.000958822 2.85756 0.0323472 2.71695 0.0920625 2.5876C0.151778 2.45826 0.238442 2.34316 0.34625 2.25003C4.84625 -1.64747 8.885 0.348777 12.445 2.11003C15.875 3.80753 18.8487 5.27503 22.345 2.25003C22.4895 2.12476 22.6669 2.04355 22.8562 2.01604C23.0454 1.98853 23.2386 2.01587 23.4128 2.0948C23.587 2.17374 23.7349 2.30098 23.839 2.46142C23.943 2.62186 23.9989 2.80879 24 3.00003Z" fill="#FCFCFC"/>
</svg>
