<svg width="23" height="23" viewBox="0 0 23 23" fill="none" xmlns="http://www.w3.org/2000/svg">
<path d="M11.7177 1.99219C16.7805 1.99219 20.8844 6.0961 20.8844 11.1589C20.8844 16.2216 16.7805 20.3255 11.7177 20.3255C10.0978 20.3281 8.50631 19.8994 7.10687 19.0834L2.5547 20.3255L3.79404 15.7715C2.97737 14.3717 2.54833 12.7795 2.55104 11.1589C2.55104 6.0961 6.65496 1.99219 11.7177 1.99219ZM8.59371 6.85052L8.41037 6.85785C8.29168 6.86508 8.17569 6.89626 8.06937 6.94952C7.96993 7.00583 7.87916 7.07623 7.79987 7.15852C7.68987 7.2621 7.62754 7.35194 7.56062 7.43902C7.22157 7.87985 7.03901 8.42106 7.04179 8.97719C7.04362 9.42635 7.16095 9.8636 7.34429 10.2724C7.7192 11.0993 8.33612 11.9747 9.15012 12.7859C9.34629 12.9812 9.53879 13.1774 9.74596 13.3598C10.7574 14.2503 11.9627 14.8925 13.266 15.2353L13.7866 15.315C13.9562 15.3242 14.1258 15.3114 14.2963 15.3031C14.5633 15.2893 14.8239 15.217 15.0599 15.0914C15.1799 15.0295 15.2971 14.9622 15.411 14.8897C15.411 14.8897 15.4504 14.864 15.5255 14.8072C15.6493 14.7155 15.7254 14.6504 15.828 14.5432C15.9041 14.4644 15.9701 14.3718 16.0205 14.2664C16.092 14.1169 16.1635 13.8319 16.1929 13.5944C16.2149 13.4129 16.2085 13.3139 16.2057 13.2525C16.202 13.1544 16.1205 13.0527 16.0315 13.0096L15.498 12.7704C15.498 12.7704 14.7005 12.4229 14.2129 12.2011C14.1618 12.1788 14.1072 12.1661 14.0515 12.1635C13.9888 12.1571 13.9255 12.1641 13.8657 12.1842C13.8059 12.2043 13.7511 12.2369 13.705 12.2799C13.7005 12.2781 13.639 12.3304 12.9763 13.1334C12.9382 13.1845 12.8859 13.2231 12.8258 13.2443C12.7657 13.2655 12.7007 13.2684 12.639 13.2525C12.5792 13.2365 12.5207 13.2163 12.4639 13.192C12.3502 13.1444 12.3108 13.126 12.2329 13.093C11.7068 12.8634 11.2197 12.5532 10.7891 12.1736C10.6736 12.0728 10.5664 11.9628 10.4564 11.8564C10.0957 11.5111 9.78145 11.1204 9.52137 10.6941L9.46729 10.607C9.42844 10.5485 9.39703 10.4854 9.37379 10.4191C9.33896 10.2844 9.42971 10.1762 9.42971 10.1762C9.42971 10.1762 9.65245 9.93235 9.75604 9.80035C9.85687 9.67202 9.94212 9.54735 9.99712 9.45844C10.1053 9.28427 10.1392 9.10552 10.0824 8.9671C9.82571 8.3401 9.55987 7.71585 9.28671 7.09619C9.23262 6.97335 9.07221 6.88535 8.92646 6.86794C8.87696 6.86244 8.82745 6.85694 8.77795 6.85327C8.65485 6.84716 8.53149 6.84838 8.40854 6.85694L8.59371 6.85052Z" fill="white"/>
</svg>
